<mxfile host="app.diagrams.net" modified="2023-06-19T18:36:51.486Z" agent="Mozilla/5.0 (Macintosh; Intel Mac OS X 10_15_7) AppleWebKit/605.1.15 (KHTML, like Gecko) Version/16.4 Safari/605.1.15" etag="2y8WsEFNDinhOjXEYdg3" version="21.5.0">
  <diagram name="Page-1" id="vsU4w-Mc6LgX3WOlTbcj">
    <mxGraphModel dx="1012" dy="1241" grid="0" gridSize="10" guides="1" tooltips="1" connect="1" arrows="1" fold="1" page="0" pageScale="1" pageWidth="1169" pageHeight="827" math="0" shadow="0">
      <root>
        <mxCell id="0" />
        <mxCell id="1" parent="0" />
        <mxCell id="j4Oqm9sxDXDtLcWen2c1-227" value="" style="shape=table;startSize=0;container=1;collapsible=0;childLayout=tableLayout;fontFamily=Helvetica;fontSize=14;fontColor=#000000;strokeColor=#4D4D4D;" vertex="1" parent="1">
          <mxGeometry x="48" y="-142" width="779.75" height="643.75" as="geometry" />
        </mxCell>
        <mxCell id="j4Oqm9sxDXDtLcWen2c1-635" style="shape=tableRow;horizontal=0;startSize=0;swimlaneHead=0;swimlaneBody=0;strokeColor=inherit;top=0;left=0;bottom=0;right=0;collapsible=0;dropTarget=0;fillColor=none;points=[[0,0.5],[1,0.5]];portConstraint=eastwest;fontFamily=Helvetica;fontSize=14;fontColor=#000000;" vertex="1" parent="j4Oqm9sxDXDtLcWen2c1-227">
          <mxGeometry width="779.75" height="40" as="geometry" />
        </mxCell>
        <mxCell id="j4Oqm9sxDXDtLcWen2c1-636" style="shape=partialRectangle;html=1;whiteSpace=wrap;connectable=0;strokeColor=inherit;overflow=hidden;fillColor=none;top=0;left=0;bottom=0;right=0;pointerEvents=1;fontFamily=Helvetica;fontSize=14;fontColor=#000000;" vertex="1" parent="j4Oqm9sxDXDtLcWen2c1-635">
          <mxGeometry width="60" height="40" as="geometry">
            <mxRectangle width="60" height="40" as="alternateBounds" />
          </mxGeometry>
        </mxCell>
        <mxCell id="j4Oqm9sxDXDtLcWen2c1-637" value="Jan" style="shape=partialRectangle;html=1;whiteSpace=wrap;connectable=0;strokeColor=inherit;overflow=hidden;fillColor=#7EA6E0;top=0;left=0;bottom=0;right=0;pointerEvents=1;fontFamily=Helvetica;fontSize=14;sketch=1;curveFitting=1;jiggle=2;opacity=70;" vertex="1" parent="j4Oqm9sxDXDtLcWen2c1-635">
          <mxGeometry x="60" width="60" height="40" as="geometry">
            <mxRectangle width="60" height="40" as="alternateBounds" />
          </mxGeometry>
        </mxCell>
        <mxCell id="j4Oqm9sxDXDtLcWen2c1-638" value="Feb" style="shape=partialRectangle;html=1;whiteSpace=wrap;connectable=0;strokeColor=inherit;overflow=hidden;fillColor=#7EA6E0;top=0;left=0;bottom=0;right=0;pointerEvents=1;fontFamily=Helvetica;fontSize=14;sketch=1;curveFitting=1;jiggle=2;opacity=70;" vertex="1" parent="j4Oqm9sxDXDtLcWen2c1-635">
          <mxGeometry x="120" width="60" height="40" as="geometry">
            <mxRectangle width="60" height="40" as="alternateBounds" />
          </mxGeometry>
        </mxCell>
        <mxCell id="j4Oqm9sxDXDtLcWen2c1-639" value="Mar" style="shape=partialRectangle;html=1;whiteSpace=wrap;connectable=0;strokeColor=inherit;overflow=hidden;fillColor=#97D077;top=0;left=0;bottom=0;right=0;pointerEvents=1;fontFamily=Helvetica;fontSize=14;sketch=1;curveFitting=1;jiggle=2;opacity=70;" vertex="1" parent="j4Oqm9sxDXDtLcWen2c1-635">
          <mxGeometry x="180" width="57" height="40" as="geometry">
            <mxRectangle width="57" height="40" as="alternateBounds" />
          </mxGeometry>
        </mxCell>
        <mxCell id="j4Oqm9sxDXDtLcWen2c1-640" value="Apr" style="shape=partialRectangle;html=1;whiteSpace=wrap;connectable=0;strokeColor=inherit;overflow=hidden;fillColor=#97D077;top=0;left=0;bottom=0;right=0;pointerEvents=1;fontFamily=Helvetica;fontSize=14;sketch=1;curveFitting=1;jiggle=2;opacity=70;" vertex="1" parent="j4Oqm9sxDXDtLcWen2c1-635">
          <mxGeometry x="237" width="63" height="40" as="geometry">
            <mxRectangle width="63" height="40" as="alternateBounds" />
          </mxGeometry>
        </mxCell>
        <mxCell id="j4Oqm9sxDXDtLcWen2c1-641" value="May" style="shape=partialRectangle;html=1;whiteSpace=wrap;connectable=0;strokeColor=inherit;overflow=hidden;fillColor=#97D077;top=0;left=0;bottom=0;right=0;pointerEvents=1;fontFamily=Helvetica;fontSize=14;sketch=1;curveFitting=1;jiggle=2;opacity=70;" vertex="1" parent="j4Oqm9sxDXDtLcWen2c1-635">
          <mxGeometry x="300" width="60" height="40" as="geometry">
            <mxRectangle width="60" height="40" as="alternateBounds" />
          </mxGeometry>
        </mxCell>
        <mxCell id="j4Oqm9sxDXDtLcWen2c1-642" value="Jun" style="shape=partialRectangle;html=1;whiteSpace=wrap;connectable=0;strokeColor=inherit;overflow=hidden;fillColor=#FFD966;top=0;left=0;bottom=0;right=0;pointerEvents=1;fontFamily=Helvetica;fontSize=14;sketch=1;curveFitting=1;jiggle=2;opacity=70;" vertex="1" parent="j4Oqm9sxDXDtLcWen2c1-635">
          <mxGeometry x="360" width="60" height="40" as="geometry">
            <mxRectangle width="60" height="40" as="alternateBounds" />
          </mxGeometry>
        </mxCell>
        <mxCell id="j4Oqm9sxDXDtLcWen2c1-643" value="Jul" style="shape=partialRectangle;html=1;whiteSpace=wrap;connectable=0;strokeColor=inherit;overflow=hidden;fillColor=#FFD966;top=0;left=0;bottom=0;right=0;pointerEvents=1;fontFamily=Helvetica;fontSize=14;sketch=1;curveFitting=1;jiggle=2;opacity=70;" vertex="1" parent="j4Oqm9sxDXDtLcWen2c1-635">
          <mxGeometry x="420" width="60" height="40" as="geometry">
            <mxRectangle width="60" height="40" as="alternateBounds" />
          </mxGeometry>
        </mxCell>
        <mxCell id="j4Oqm9sxDXDtLcWen2c1-644" value="Aug" style="shape=partialRectangle;html=1;whiteSpace=wrap;connectable=0;strokeColor=inherit;overflow=hidden;fillColor=#FFD966;top=0;left=0;bottom=0;right=0;pointerEvents=1;fontFamily=Helvetica;fontSize=14;sketch=1;curveFitting=1;jiggle=2;opacity=70;" vertex="1" parent="j4Oqm9sxDXDtLcWen2c1-635">
          <mxGeometry x="480" width="60" height="40" as="geometry">
            <mxRectangle width="60" height="40" as="alternateBounds" />
          </mxGeometry>
        </mxCell>
        <mxCell id="j4Oqm9sxDXDtLcWen2c1-645" value="Sep" style="shape=partialRectangle;html=1;whiteSpace=wrap;connectable=0;strokeColor=inherit;overflow=hidden;fillColor=#EA6B66;top=0;left=0;bottom=0;right=0;pointerEvents=1;fontFamily=Helvetica;fontSize=14;sketch=1;curveFitting=1;jiggle=2;opacity=70;" vertex="1" parent="j4Oqm9sxDXDtLcWen2c1-635">
          <mxGeometry x="540" width="60" height="40" as="geometry">
            <mxRectangle width="60" height="40" as="alternateBounds" />
          </mxGeometry>
        </mxCell>
        <mxCell id="j4Oqm9sxDXDtLcWen2c1-646" value="Oct" style="shape=partialRectangle;html=1;whiteSpace=wrap;connectable=0;strokeColor=inherit;overflow=hidden;fillColor=#EA6B66;top=0;left=0;bottom=0;right=0;pointerEvents=1;fontFamily=Helvetica;fontSize=14;sketch=1;curveFitting=1;jiggle=2;opacity=70;" vertex="1" parent="j4Oqm9sxDXDtLcWen2c1-635">
          <mxGeometry x="600" width="60" height="40" as="geometry">
            <mxRectangle width="60" height="40" as="alternateBounds" />
          </mxGeometry>
        </mxCell>
        <mxCell id="j4Oqm9sxDXDtLcWen2c1-647" value="Nov" style="shape=partialRectangle;html=1;whiteSpace=wrap;connectable=0;strokeColor=inherit;overflow=hidden;fillColor=#EA6B66;top=0;left=0;bottom=0;right=0;pointerEvents=1;fontFamily=Helvetica;fontSize=14;sketch=1;curveFitting=1;jiggle=2;opacity=70;" vertex="1" parent="j4Oqm9sxDXDtLcWen2c1-635">
          <mxGeometry x="660" width="60" height="40" as="geometry">
            <mxRectangle width="60" height="40" as="alternateBounds" />
          </mxGeometry>
        </mxCell>
        <mxCell id="j4Oqm9sxDXDtLcWen2c1-648" value="Dec" style="shape=partialRectangle;html=1;whiteSpace=wrap;connectable=0;strokeColor=inherit;overflow=hidden;fillColor=#7EA6E0;top=0;left=0;bottom=0;right=0;pointerEvents=1;fontFamily=Helvetica;fontSize=14;sketch=1;curveFitting=1;jiggle=2;opacity=70;" vertex="1" parent="j4Oqm9sxDXDtLcWen2c1-635">
          <mxGeometry x="720" width="60" height="40" as="geometry">
            <mxRectangle width="60" height="40" as="alternateBounds" />
          </mxGeometry>
        </mxCell>
        <mxCell id="j4Oqm9sxDXDtLcWen2c1-228" value="" style="shape=tableRow;horizontal=0;startSize=0;swimlaneHead=0;swimlaneBody=0;strokeColor=inherit;top=0;left=0;bottom=0;right=0;collapsible=0;dropTarget=0;fillColor=none;points=[[0,0.5],[1,0.5]];portConstraint=eastwest;fontFamily=Helvetica;fontSize=14;fontColor=#000000;" vertex="1" parent="j4Oqm9sxDXDtLcWen2c1-227">
          <mxGeometry y="40" width="779.75" height="40" as="geometry" />
        </mxCell>
        <mxCell id="j4Oqm9sxDXDtLcWen2c1-229" value="&lt;font style=&quot;font-size: 10px;&quot;&gt;Apples&lt;/font&gt;" style="shape=partialRectangle;html=1;whiteSpace=wrap;connectable=0;strokeColor=inherit;overflow=hidden;fillColor=none;top=0;left=0;bottom=0;right=0;pointerEvents=1;fontFamily=Helvetica;fontSize=10;fontColor=#000000;" vertex="1" parent="j4Oqm9sxDXDtLcWen2c1-228">
          <mxGeometry width="60" height="40" as="geometry">
            <mxRectangle width="60" height="40" as="alternateBounds" />
          </mxGeometry>
        </mxCell>
        <mxCell id="j4Oqm9sxDXDtLcWen2c1-230" value="" style="shape=partialRectangle;html=1;whiteSpace=wrap;connectable=0;strokeColor=inherit;overflow=hidden;fillColor=none;top=0;left=0;bottom=0;right=0;pointerEvents=1;fontFamily=Helvetica;fontSize=14;fontColor=#000000;" vertex="1" parent="j4Oqm9sxDXDtLcWen2c1-228">
          <mxGeometry x="60" width="60" height="40" as="geometry">
            <mxRectangle width="60" height="40" as="alternateBounds" />
          </mxGeometry>
        </mxCell>
        <mxCell id="j4Oqm9sxDXDtLcWen2c1-231" value="" style="shape=partialRectangle;html=1;whiteSpace=wrap;connectable=0;strokeColor=inherit;overflow=hidden;fillColor=none;top=0;left=0;bottom=0;right=0;pointerEvents=1;fontFamily=Helvetica;fontSize=14;fontColor=#000000;" vertex="1" parent="j4Oqm9sxDXDtLcWen2c1-228">
          <mxGeometry x="120" width="60" height="40" as="geometry">
            <mxRectangle width="60" height="40" as="alternateBounds" />
          </mxGeometry>
        </mxCell>
        <mxCell id="j4Oqm9sxDXDtLcWen2c1-232" value="" style="shape=partialRectangle;html=1;whiteSpace=wrap;connectable=0;strokeColor=inherit;overflow=hidden;fillColor=none;top=0;left=0;bottom=0;right=0;pointerEvents=1;fontFamily=Helvetica;fontSize=14;fontColor=#000000;" vertex="1" parent="j4Oqm9sxDXDtLcWen2c1-228">
          <mxGeometry x="180" width="57" height="40" as="geometry">
            <mxRectangle width="57" height="40" as="alternateBounds" />
          </mxGeometry>
        </mxCell>
        <mxCell id="j4Oqm9sxDXDtLcWen2c1-233" value="" style="shape=partialRectangle;html=1;whiteSpace=wrap;connectable=0;strokeColor=inherit;overflow=hidden;fillColor=none;top=0;left=0;bottom=0;right=0;pointerEvents=1;fontFamily=Helvetica;fontSize=14;fontColor=#000000;" vertex="1" parent="j4Oqm9sxDXDtLcWen2c1-228">
          <mxGeometry x="237" width="63" height="40" as="geometry">
            <mxRectangle width="63" height="40" as="alternateBounds" />
          </mxGeometry>
        </mxCell>
        <mxCell id="j4Oqm9sxDXDtLcWen2c1-234" value="" style="shape=partialRectangle;html=1;whiteSpace=wrap;connectable=0;strokeColor=inherit;overflow=hidden;fillColor=none;top=0;left=0;bottom=0;right=0;pointerEvents=1;fontFamily=Helvetica;fontSize=14;fontColor=#000000;" vertex="1" parent="j4Oqm9sxDXDtLcWen2c1-228">
          <mxGeometry x="300" width="60" height="40" as="geometry">
            <mxRectangle width="60" height="40" as="alternateBounds" />
          </mxGeometry>
        </mxCell>
        <mxCell id="j4Oqm9sxDXDtLcWen2c1-235" value="" style="shape=partialRectangle;html=1;whiteSpace=wrap;connectable=0;strokeColor=inherit;overflow=hidden;fillColor=none;top=0;left=0;bottom=0;right=0;pointerEvents=1;fontFamily=Helvetica;fontSize=14;fontColor=#000000;" vertex="1" parent="j4Oqm9sxDXDtLcWen2c1-228">
          <mxGeometry x="360" width="60" height="40" as="geometry">
            <mxRectangle width="60" height="40" as="alternateBounds" />
          </mxGeometry>
        </mxCell>
        <mxCell id="j4Oqm9sxDXDtLcWen2c1-236" value="" style="shape=partialRectangle;html=1;whiteSpace=wrap;connectable=0;strokeColor=inherit;overflow=hidden;fillColor=none;top=0;left=0;bottom=0;right=0;pointerEvents=1;fontFamily=Helvetica;fontSize=14;fontColor=#000000;" vertex="1" parent="j4Oqm9sxDXDtLcWen2c1-228">
          <mxGeometry x="420" width="60" height="40" as="geometry">
            <mxRectangle width="60" height="40" as="alternateBounds" />
          </mxGeometry>
        </mxCell>
        <mxCell id="j4Oqm9sxDXDtLcWen2c1-237" value="" style="shape=partialRectangle;html=1;whiteSpace=wrap;connectable=0;strokeColor=inherit;overflow=hidden;fillColor=none;top=0;left=0;bottom=0;right=0;pointerEvents=1;fontFamily=Helvetica;fontSize=14;fontColor=#000000;" vertex="1" parent="j4Oqm9sxDXDtLcWen2c1-228">
          <mxGeometry x="480" width="60" height="40" as="geometry">
            <mxRectangle width="60" height="40" as="alternateBounds" />
          </mxGeometry>
        </mxCell>
        <mxCell id="j4Oqm9sxDXDtLcWen2c1-238" value="" style="shape=partialRectangle;html=1;whiteSpace=wrap;connectable=0;strokeColor=inherit;overflow=hidden;fillColor=none;top=0;left=0;bottom=0;right=0;pointerEvents=1;fontFamily=Helvetica;fontSize=14;fontColor=#000000;" vertex="1" parent="j4Oqm9sxDXDtLcWen2c1-228">
          <mxGeometry x="540" width="60" height="40" as="geometry">
            <mxRectangle width="60" height="40" as="alternateBounds" />
          </mxGeometry>
        </mxCell>
        <mxCell id="j4Oqm9sxDXDtLcWen2c1-239" value="" style="shape=partialRectangle;html=1;whiteSpace=wrap;connectable=0;strokeColor=inherit;overflow=hidden;fillColor=none;top=0;left=0;bottom=0;right=0;pointerEvents=1;fontFamily=Helvetica;fontSize=14;fontColor=#000000;" vertex="1" parent="j4Oqm9sxDXDtLcWen2c1-228">
          <mxGeometry x="600" width="60" height="40" as="geometry">
            <mxRectangle width="60" height="40" as="alternateBounds" />
          </mxGeometry>
        </mxCell>
        <mxCell id="j4Oqm9sxDXDtLcWen2c1-240" value="" style="shape=partialRectangle;html=1;whiteSpace=wrap;connectable=0;strokeColor=inherit;overflow=hidden;fillColor=none;top=0;left=0;bottom=0;right=0;pointerEvents=1;fontFamily=Helvetica;fontSize=14;fontColor=#000000;" vertex="1" parent="j4Oqm9sxDXDtLcWen2c1-228">
          <mxGeometry x="660" width="60" height="40" as="geometry">
            <mxRectangle width="60" height="40" as="alternateBounds" />
          </mxGeometry>
        </mxCell>
        <mxCell id="j4Oqm9sxDXDtLcWen2c1-241" value="" style="shape=partialRectangle;html=1;whiteSpace=wrap;connectable=0;strokeColor=inherit;overflow=hidden;fillColor=none;top=0;left=0;bottom=0;right=0;pointerEvents=1;fontFamily=Helvetica;fontSize=14;fontColor=#000000;" vertex="1" parent="j4Oqm9sxDXDtLcWen2c1-228">
          <mxGeometry x="720" width="60" height="40" as="geometry">
            <mxRectangle width="60" height="40" as="alternateBounds" />
          </mxGeometry>
        </mxCell>
        <mxCell id="j4Oqm9sxDXDtLcWen2c1-564" style="shape=tableRow;horizontal=0;startSize=0;swimlaneHead=0;swimlaneBody=0;strokeColor=inherit;top=0;left=0;bottom=0;right=0;collapsible=0;dropTarget=0;fillColor=none;points=[[0,0.5],[1,0.5]];portConstraint=eastwest;fontFamily=Helvetica;fontSize=14;fontColor=#000000;" vertex="1" parent="j4Oqm9sxDXDtLcWen2c1-227">
          <mxGeometry y="80" width="779.75" height="40" as="geometry" />
        </mxCell>
        <mxCell id="j4Oqm9sxDXDtLcWen2c1-565" value="Apricots" style="shape=partialRectangle;html=1;whiteSpace=wrap;connectable=0;strokeColor=inherit;overflow=hidden;fillColor=none;top=0;left=0;bottom=0;right=0;pointerEvents=1;fontFamily=Helvetica;fontSize=10;fontColor=#000000;" vertex="1" parent="j4Oqm9sxDXDtLcWen2c1-564">
          <mxGeometry width="60" height="40" as="geometry">
            <mxRectangle width="60" height="40" as="alternateBounds" />
          </mxGeometry>
        </mxCell>
        <mxCell id="j4Oqm9sxDXDtLcWen2c1-566" style="shape=partialRectangle;html=1;whiteSpace=wrap;connectable=0;strokeColor=inherit;overflow=hidden;fillColor=none;top=0;left=0;bottom=0;right=0;pointerEvents=1;fontFamily=Helvetica;fontSize=14;fontColor=#000000;" vertex="1" parent="j4Oqm9sxDXDtLcWen2c1-564">
          <mxGeometry x="60" width="60" height="40" as="geometry">
            <mxRectangle width="60" height="40" as="alternateBounds" />
          </mxGeometry>
        </mxCell>
        <mxCell id="j4Oqm9sxDXDtLcWen2c1-567" style="shape=partialRectangle;html=1;whiteSpace=wrap;connectable=0;strokeColor=inherit;overflow=hidden;fillColor=none;top=0;left=0;bottom=0;right=0;pointerEvents=1;fontFamily=Helvetica;fontSize=14;fontColor=#000000;" vertex="1" parent="j4Oqm9sxDXDtLcWen2c1-564">
          <mxGeometry x="120" width="60" height="40" as="geometry">
            <mxRectangle width="60" height="40" as="alternateBounds" />
          </mxGeometry>
        </mxCell>
        <mxCell id="j4Oqm9sxDXDtLcWen2c1-568" style="shape=partialRectangle;html=1;whiteSpace=wrap;connectable=0;strokeColor=inherit;overflow=hidden;fillColor=none;top=0;left=0;bottom=0;right=0;pointerEvents=1;fontFamily=Helvetica;fontSize=14;fontColor=#000000;" vertex="1" parent="j4Oqm9sxDXDtLcWen2c1-564">
          <mxGeometry x="180" width="57" height="40" as="geometry">
            <mxRectangle width="57" height="40" as="alternateBounds" />
          </mxGeometry>
        </mxCell>
        <mxCell id="j4Oqm9sxDXDtLcWen2c1-569" style="shape=partialRectangle;html=1;whiteSpace=wrap;connectable=0;strokeColor=inherit;overflow=hidden;fillColor=none;top=0;left=0;bottom=0;right=0;pointerEvents=1;fontFamily=Helvetica;fontSize=14;fontColor=#000000;" vertex="1" parent="j4Oqm9sxDXDtLcWen2c1-564">
          <mxGeometry x="237" width="63" height="40" as="geometry">
            <mxRectangle width="63" height="40" as="alternateBounds" />
          </mxGeometry>
        </mxCell>
        <mxCell id="j4Oqm9sxDXDtLcWen2c1-570" style="shape=partialRectangle;html=1;whiteSpace=wrap;connectable=0;strokeColor=inherit;overflow=hidden;fillColor=none;top=0;left=0;bottom=0;right=0;pointerEvents=1;fontFamily=Helvetica;fontSize=14;fontColor=#000000;" vertex="1" parent="j4Oqm9sxDXDtLcWen2c1-564">
          <mxGeometry x="300" width="60" height="40" as="geometry">
            <mxRectangle width="60" height="40" as="alternateBounds" />
          </mxGeometry>
        </mxCell>
        <mxCell id="j4Oqm9sxDXDtLcWen2c1-571" style="shape=partialRectangle;html=1;whiteSpace=wrap;connectable=0;strokeColor=inherit;overflow=hidden;fillColor=none;top=0;left=0;bottom=0;right=0;pointerEvents=1;fontFamily=Helvetica;fontSize=14;fontColor=#000000;" vertex="1" parent="j4Oqm9sxDXDtLcWen2c1-564">
          <mxGeometry x="360" width="60" height="40" as="geometry">
            <mxRectangle width="60" height="40" as="alternateBounds" />
          </mxGeometry>
        </mxCell>
        <mxCell id="j4Oqm9sxDXDtLcWen2c1-572" style="shape=partialRectangle;html=1;whiteSpace=wrap;connectable=0;strokeColor=inherit;overflow=hidden;fillColor=none;top=0;left=0;bottom=0;right=0;pointerEvents=1;fontFamily=Helvetica;fontSize=14;fontColor=#000000;" vertex="1" parent="j4Oqm9sxDXDtLcWen2c1-564">
          <mxGeometry x="420" width="60" height="40" as="geometry">
            <mxRectangle width="60" height="40" as="alternateBounds" />
          </mxGeometry>
        </mxCell>
        <mxCell id="j4Oqm9sxDXDtLcWen2c1-573" style="shape=partialRectangle;html=1;whiteSpace=wrap;connectable=0;strokeColor=inherit;overflow=hidden;fillColor=none;top=0;left=0;bottom=0;right=0;pointerEvents=1;fontFamily=Helvetica;fontSize=14;fontColor=#000000;" vertex="1" parent="j4Oqm9sxDXDtLcWen2c1-564">
          <mxGeometry x="480" width="60" height="40" as="geometry">
            <mxRectangle width="60" height="40" as="alternateBounds" />
          </mxGeometry>
        </mxCell>
        <mxCell id="j4Oqm9sxDXDtLcWen2c1-574" style="shape=partialRectangle;html=1;whiteSpace=wrap;connectable=0;strokeColor=inherit;overflow=hidden;fillColor=none;top=0;left=0;bottom=0;right=0;pointerEvents=1;fontFamily=Helvetica;fontSize=14;fontColor=#000000;" vertex="1" parent="j4Oqm9sxDXDtLcWen2c1-564">
          <mxGeometry x="540" width="60" height="40" as="geometry">
            <mxRectangle width="60" height="40" as="alternateBounds" />
          </mxGeometry>
        </mxCell>
        <mxCell id="j4Oqm9sxDXDtLcWen2c1-575" style="shape=partialRectangle;html=1;whiteSpace=wrap;connectable=0;strokeColor=inherit;overflow=hidden;fillColor=none;top=0;left=0;bottom=0;right=0;pointerEvents=1;fontFamily=Helvetica;fontSize=14;fontColor=#000000;" vertex="1" parent="j4Oqm9sxDXDtLcWen2c1-564">
          <mxGeometry x="600" width="60" height="40" as="geometry">
            <mxRectangle width="60" height="40" as="alternateBounds" />
          </mxGeometry>
        </mxCell>
        <mxCell id="j4Oqm9sxDXDtLcWen2c1-576" style="shape=partialRectangle;html=1;whiteSpace=wrap;connectable=0;strokeColor=inherit;overflow=hidden;fillColor=none;top=0;left=0;bottom=0;right=0;pointerEvents=1;fontFamily=Helvetica;fontSize=14;fontColor=#000000;" vertex="1" parent="j4Oqm9sxDXDtLcWen2c1-564">
          <mxGeometry x="660" width="60" height="40" as="geometry">
            <mxRectangle width="60" height="40" as="alternateBounds" />
          </mxGeometry>
        </mxCell>
        <mxCell id="j4Oqm9sxDXDtLcWen2c1-577" style="shape=partialRectangle;html=1;whiteSpace=wrap;connectable=0;strokeColor=inherit;overflow=hidden;fillColor=none;top=0;left=0;bottom=0;right=0;pointerEvents=1;fontFamily=Helvetica;fontSize=14;fontColor=#000000;" vertex="1" parent="j4Oqm9sxDXDtLcWen2c1-564">
          <mxGeometry x="720" width="60" height="40" as="geometry">
            <mxRectangle width="60" height="40" as="alternateBounds" />
          </mxGeometry>
        </mxCell>
        <mxCell id="j4Oqm9sxDXDtLcWen2c1-508" style="shape=tableRow;horizontal=0;startSize=0;swimlaneHead=0;swimlaneBody=0;strokeColor=inherit;top=0;left=0;bottom=0;right=0;collapsible=0;dropTarget=0;fillColor=none;points=[[0,0.5],[1,0.5]];portConstraint=eastwest;fontFamily=Helvetica;fontSize=14;fontColor=#000000;" vertex="1" parent="j4Oqm9sxDXDtLcWen2c1-227">
          <mxGeometry y="120" width="779.75" height="40" as="geometry" />
        </mxCell>
        <mxCell id="j4Oqm9sxDXDtLcWen2c1-509" value="Blackberries" style="shape=partialRectangle;html=1;whiteSpace=wrap;connectable=0;strokeColor=inherit;overflow=hidden;fillColor=none;top=0;left=0;bottom=0;right=0;pointerEvents=1;fontFamily=Helvetica;fontSize=10;fontColor=#000000;" vertex="1" parent="j4Oqm9sxDXDtLcWen2c1-508">
          <mxGeometry width="60" height="40" as="geometry">
            <mxRectangle width="60" height="40" as="alternateBounds" />
          </mxGeometry>
        </mxCell>
        <mxCell id="j4Oqm9sxDXDtLcWen2c1-510" style="shape=partialRectangle;html=1;whiteSpace=wrap;connectable=0;strokeColor=inherit;overflow=hidden;fillColor=none;top=0;left=0;bottom=0;right=0;pointerEvents=1;fontFamily=Helvetica;fontSize=14;fontColor=#000000;" vertex="1" parent="j4Oqm9sxDXDtLcWen2c1-508">
          <mxGeometry x="60" width="60" height="40" as="geometry">
            <mxRectangle width="60" height="40" as="alternateBounds" />
          </mxGeometry>
        </mxCell>
        <mxCell id="j4Oqm9sxDXDtLcWen2c1-511" style="shape=partialRectangle;html=1;whiteSpace=wrap;connectable=0;strokeColor=inherit;overflow=hidden;fillColor=none;top=0;left=0;bottom=0;right=0;pointerEvents=1;fontFamily=Helvetica;fontSize=14;fontColor=#000000;" vertex="1" parent="j4Oqm9sxDXDtLcWen2c1-508">
          <mxGeometry x="120" width="60" height="40" as="geometry">
            <mxRectangle width="60" height="40" as="alternateBounds" />
          </mxGeometry>
        </mxCell>
        <mxCell id="j4Oqm9sxDXDtLcWen2c1-512" style="shape=partialRectangle;html=1;whiteSpace=wrap;connectable=0;strokeColor=inherit;overflow=hidden;fillColor=none;top=0;left=0;bottom=0;right=0;pointerEvents=1;fontFamily=Helvetica;fontSize=14;fontColor=#000000;" vertex="1" parent="j4Oqm9sxDXDtLcWen2c1-508">
          <mxGeometry x="180" width="57" height="40" as="geometry">
            <mxRectangle width="57" height="40" as="alternateBounds" />
          </mxGeometry>
        </mxCell>
        <mxCell id="j4Oqm9sxDXDtLcWen2c1-513" style="shape=partialRectangle;html=1;whiteSpace=wrap;connectable=0;strokeColor=inherit;overflow=hidden;fillColor=none;top=0;left=0;bottom=0;right=0;pointerEvents=1;fontFamily=Helvetica;fontSize=14;fontColor=#000000;" vertex="1" parent="j4Oqm9sxDXDtLcWen2c1-508">
          <mxGeometry x="237" width="63" height="40" as="geometry">
            <mxRectangle width="63" height="40" as="alternateBounds" />
          </mxGeometry>
        </mxCell>
        <mxCell id="j4Oqm9sxDXDtLcWen2c1-514" style="shape=partialRectangle;html=1;whiteSpace=wrap;connectable=0;strokeColor=inherit;overflow=hidden;fillColor=none;top=0;left=0;bottom=0;right=0;pointerEvents=1;fontFamily=Helvetica;fontSize=14;fontColor=#000000;" vertex="1" parent="j4Oqm9sxDXDtLcWen2c1-508">
          <mxGeometry x="300" width="60" height="40" as="geometry">
            <mxRectangle width="60" height="40" as="alternateBounds" />
          </mxGeometry>
        </mxCell>
        <mxCell id="j4Oqm9sxDXDtLcWen2c1-515" style="shape=partialRectangle;html=1;whiteSpace=wrap;connectable=0;strokeColor=inherit;overflow=hidden;fillColor=none;top=0;left=0;bottom=0;right=0;pointerEvents=1;fontFamily=Helvetica;fontSize=14;fontColor=#000000;" vertex="1" parent="j4Oqm9sxDXDtLcWen2c1-508">
          <mxGeometry x="360" width="60" height="40" as="geometry">
            <mxRectangle width="60" height="40" as="alternateBounds" />
          </mxGeometry>
        </mxCell>
        <mxCell id="j4Oqm9sxDXDtLcWen2c1-516" style="shape=partialRectangle;html=1;whiteSpace=wrap;connectable=0;strokeColor=inherit;overflow=hidden;fillColor=none;top=0;left=0;bottom=0;right=0;pointerEvents=1;fontFamily=Helvetica;fontSize=14;fontColor=#000000;" vertex="1" parent="j4Oqm9sxDXDtLcWen2c1-508">
          <mxGeometry x="420" width="60" height="40" as="geometry">
            <mxRectangle width="60" height="40" as="alternateBounds" />
          </mxGeometry>
        </mxCell>
        <mxCell id="j4Oqm9sxDXDtLcWen2c1-517" style="shape=partialRectangle;html=1;whiteSpace=wrap;connectable=0;strokeColor=inherit;overflow=hidden;fillColor=none;top=0;left=0;bottom=0;right=0;pointerEvents=1;fontFamily=Helvetica;fontSize=14;fontColor=#000000;" vertex="1" parent="j4Oqm9sxDXDtLcWen2c1-508">
          <mxGeometry x="480" width="60" height="40" as="geometry">
            <mxRectangle width="60" height="40" as="alternateBounds" />
          </mxGeometry>
        </mxCell>
        <mxCell id="j4Oqm9sxDXDtLcWen2c1-518" style="shape=partialRectangle;html=1;whiteSpace=wrap;connectable=0;strokeColor=inherit;overflow=hidden;fillColor=none;top=0;left=0;bottom=0;right=0;pointerEvents=1;fontFamily=Helvetica;fontSize=14;fontColor=#000000;" vertex="1" parent="j4Oqm9sxDXDtLcWen2c1-508">
          <mxGeometry x="540" width="60" height="40" as="geometry">
            <mxRectangle width="60" height="40" as="alternateBounds" />
          </mxGeometry>
        </mxCell>
        <mxCell id="j4Oqm9sxDXDtLcWen2c1-519" style="shape=partialRectangle;html=1;whiteSpace=wrap;connectable=0;strokeColor=inherit;overflow=hidden;fillColor=none;top=0;left=0;bottom=0;right=0;pointerEvents=1;fontFamily=Helvetica;fontSize=14;fontColor=#000000;" vertex="1" parent="j4Oqm9sxDXDtLcWen2c1-508">
          <mxGeometry x="600" width="60" height="40" as="geometry">
            <mxRectangle width="60" height="40" as="alternateBounds" />
          </mxGeometry>
        </mxCell>
        <mxCell id="j4Oqm9sxDXDtLcWen2c1-520" style="shape=partialRectangle;html=1;whiteSpace=wrap;connectable=0;strokeColor=inherit;overflow=hidden;fillColor=none;top=0;left=0;bottom=0;right=0;pointerEvents=1;fontFamily=Helvetica;fontSize=14;fontColor=#000000;" vertex="1" parent="j4Oqm9sxDXDtLcWen2c1-508">
          <mxGeometry x="660" width="60" height="40" as="geometry">
            <mxRectangle width="60" height="40" as="alternateBounds" />
          </mxGeometry>
        </mxCell>
        <mxCell id="j4Oqm9sxDXDtLcWen2c1-521" style="shape=partialRectangle;html=1;whiteSpace=wrap;connectable=0;strokeColor=inherit;overflow=hidden;fillColor=none;top=0;left=0;bottom=0;right=0;pointerEvents=1;fontFamily=Helvetica;fontSize=14;fontColor=#000000;" vertex="1" parent="j4Oqm9sxDXDtLcWen2c1-508">
          <mxGeometry x="720" width="60" height="40" as="geometry">
            <mxRectangle width="60" height="40" as="alternateBounds" />
          </mxGeometry>
        </mxCell>
        <mxCell id="j4Oqm9sxDXDtLcWen2c1-242" value="" style="shape=tableRow;horizontal=0;startSize=0;swimlaneHead=0;swimlaneBody=0;strokeColor=inherit;top=0;left=0;bottom=0;right=0;collapsible=0;dropTarget=0;fillColor=none;points=[[0,0.5],[1,0.5]];portConstraint=eastwest;fontFamily=Helvetica;fontSize=14;fontColor=#000000;" vertex="1" parent="j4Oqm9sxDXDtLcWen2c1-227">
          <mxGeometry y="160" width="779.75" height="40" as="geometry" />
        </mxCell>
        <mxCell id="j4Oqm9sxDXDtLcWen2c1-243" value="Blueberries" style="shape=partialRectangle;html=1;whiteSpace=wrap;connectable=0;strokeColor=inherit;overflow=hidden;fillColor=none;top=0;left=0;bottom=0;right=0;pointerEvents=1;fontFamily=Helvetica;fontSize=10;fontColor=#000000;" vertex="1" parent="j4Oqm9sxDXDtLcWen2c1-242">
          <mxGeometry width="60" height="40" as="geometry">
            <mxRectangle width="60" height="40" as="alternateBounds" />
          </mxGeometry>
        </mxCell>
        <mxCell id="j4Oqm9sxDXDtLcWen2c1-244" value="" style="shape=partialRectangle;html=1;whiteSpace=wrap;connectable=0;strokeColor=inherit;overflow=hidden;fillColor=none;top=0;left=0;bottom=0;right=0;pointerEvents=1;fontFamily=Helvetica;fontSize=14;fontColor=#000000;" vertex="1" parent="j4Oqm9sxDXDtLcWen2c1-242">
          <mxGeometry x="60" width="60" height="40" as="geometry">
            <mxRectangle width="60" height="40" as="alternateBounds" />
          </mxGeometry>
        </mxCell>
        <mxCell id="j4Oqm9sxDXDtLcWen2c1-245" value="" style="shape=partialRectangle;html=1;whiteSpace=wrap;connectable=0;strokeColor=inherit;overflow=hidden;fillColor=none;top=0;left=0;bottom=0;right=0;pointerEvents=1;fontFamily=Helvetica;fontSize=14;fontColor=#000000;" vertex="1" parent="j4Oqm9sxDXDtLcWen2c1-242">
          <mxGeometry x="120" width="60" height="40" as="geometry">
            <mxRectangle width="60" height="40" as="alternateBounds" />
          </mxGeometry>
        </mxCell>
        <mxCell id="j4Oqm9sxDXDtLcWen2c1-246" value="" style="shape=partialRectangle;html=1;whiteSpace=wrap;connectable=0;strokeColor=inherit;overflow=hidden;fillColor=none;top=0;left=0;bottom=0;right=0;pointerEvents=1;fontFamily=Helvetica;fontSize=14;fontColor=#000000;" vertex="1" parent="j4Oqm9sxDXDtLcWen2c1-242">
          <mxGeometry x="180" width="57" height="40" as="geometry">
            <mxRectangle width="57" height="40" as="alternateBounds" />
          </mxGeometry>
        </mxCell>
        <mxCell id="j4Oqm9sxDXDtLcWen2c1-247" value="" style="shape=partialRectangle;html=1;whiteSpace=wrap;connectable=0;strokeColor=inherit;overflow=hidden;fillColor=none;top=0;left=0;bottom=0;right=0;pointerEvents=1;fontFamily=Helvetica;fontSize=14;fontColor=#000000;" vertex="1" parent="j4Oqm9sxDXDtLcWen2c1-242">
          <mxGeometry x="237" width="63" height="40" as="geometry">
            <mxRectangle width="63" height="40" as="alternateBounds" />
          </mxGeometry>
        </mxCell>
        <mxCell id="j4Oqm9sxDXDtLcWen2c1-248" value="" style="shape=partialRectangle;html=1;whiteSpace=wrap;connectable=0;strokeColor=inherit;overflow=hidden;fillColor=none;top=0;left=0;bottom=0;right=0;pointerEvents=1;fontFamily=Helvetica;fontSize=14;fontColor=#000000;" vertex="1" parent="j4Oqm9sxDXDtLcWen2c1-242">
          <mxGeometry x="300" width="60" height="40" as="geometry">
            <mxRectangle width="60" height="40" as="alternateBounds" />
          </mxGeometry>
        </mxCell>
        <mxCell id="j4Oqm9sxDXDtLcWen2c1-249" value="" style="shape=partialRectangle;html=1;whiteSpace=wrap;connectable=0;strokeColor=inherit;overflow=hidden;fillColor=none;top=0;left=0;bottom=0;right=0;pointerEvents=1;fontFamily=Helvetica;fontSize=14;fontColor=#000000;" vertex="1" parent="j4Oqm9sxDXDtLcWen2c1-242">
          <mxGeometry x="360" width="60" height="40" as="geometry">
            <mxRectangle width="60" height="40" as="alternateBounds" />
          </mxGeometry>
        </mxCell>
        <mxCell id="j4Oqm9sxDXDtLcWen2c1-250" value="" style="shape=partialRectangle;html=1;whiteSpace=wrap;connectable=0;strokeColor=inherit;overflow=hidden;fillColor=none;top=0;left=0;bottom=0;right=0;pointerEvents=1;fontFamily=Helvetica;fontSize=14;fontColor=#000000;" vertex="1" parent="j4Oqm9sxDXDtLcWen2c1-242">
          <mxGeometry x="420" width="60" height="40" as="geometry">
            <mxRectangle width="60" height="40" as="alternateBounds" />
          </mxGeometry>
        </mxCell>
        <mxCell id="j4Oqm9sxDXDtLcWen2c1-251" value="" style="shape=partialRectangle;html=1;whiteSpace=wrap;connectable=0;strokeColor=inherit;overflow=hidden;fillColor=none;top=0;left=0;bottom=0;right=0;pointerEvents=1;fontFamily=Helvetica;fontSize=14;fontColor=#000000;" vertex="1" parent="j4Oqm9sxDXDtLcWen2c1-242">
          <mxGeometry x="480" width="60" height="40" as="geometry">
            <mxRectangle width="60" height="40" as="alternateBounds" />
          </mxGeometry>
        </mxCell>
        <mxCell id="j4Oqm9sxDXDtLcWen2c1-252" value="" style="shape=partialRectangle;html=1;whiteSpace=wrap;connectable=0;strokeColor=inherit;overflow=hidden;fillColor=none;top=0;left=0;bottom=0;right=0;pointerEvents=1;fontFamily=Helvetica;fontSize=14;fontColor=#000000;" vertex="1" parent="j4Oqm9sxDXDtLcWen2c1-242">
          <mxGeometry x="540" width="60" height="40" as="geometry">
            <mxRectangle width="60" height="40" as="alternateBounds" />
          </mxGeometry>
        </mxCell>
        <mxCell id="j4Oqm9sxDXDtLcWen2c1-253" value="" style="shape=partialRectangle;html=1;whiteSpace=wrap;connectable=0;strokeColor=inherit;overflow=hidden;fillColor=none;top=0;left=0;bottom=0;right=0;pointerEvents=1;fontFamily=Helvetica;fontSize=14;fontColor=#000000;" vertex="1" parent="j4Oqm9sxDXDtLcWen2c1-242">
          <mxGeometry x="600" width="60" height="40" as="geometry">
            <mxRectangle width="60" height="40" as="alternateBounds" />
          </mxGeometry>
        </mxCell>
        <mxCell id="j4Oqm9sxDXDtLcWen2c1-254" value="" style="shape=partialRectangle;html=1;whiteSpace=wrap;connectable=0;strokeColor=inherit;overflow=hidden;fillColor=none;top=0;left=0;bottom=0;right=0;pointerEvents=1;fontFamily=Helvetica;fontSize=14;fontColor=#000000;" vertex="1" parent="j4Oqm9sxDXDtLcWen2c1-242">
          <mxGeometry x="660" width="60" height="40" as="geometry">
            <mxRectangle width="60" height="40" as="alternateBounds" />
          </mxGeometry>
        </mxCell>
        <mxCell id="j4Oqm9sxDXDtLcWen2c1-255" value="" style="shape=partialRectangle;html=1;whiteSpace=wrap;connectable=0;strokeColor=inherit;overflow=hidden;fillColor=none;top=0;left=0;bottom=0;right=0;pointerEvents=1;fontFamily=Helvetica;fontSize=14;fontColor=#000000;" vertex="1" parent="j4Oqm9sxDXDtLcWen2c1-242">
          <mxGeometry x="720" width="60" height="40" as="geometry">
            <mxRectangle width="60" height="40" as="alternateBounds" />
          </mxGeometry>
        </mxCell>
        <mxCell id="j4Oqm9sxDXDtLcWen2c1-578" style="shape=tableRow;horizontal=0;startSize=0;swimlaneHead=0;swimlaneBody=0;strokeColor=inherit;top=0;left=0;bottom=0;right=0;collapsible=0;dropTarget=0;fillColor=none;points=[[0,0.5],[1,0.5]];portConstraint=eastwest;fontFamily=Helvetica;fontSize=14;fontColor=#000000;" vertex="1" parent="j4Oqm9sxDXDtLcWen2c1-227">
          <mxGeometry y="200" width="779.75" height="40" as="geometry" />
        </mxCell>
        <mxCell id="j4Oqm9sxDXDtLcWen2c1-579" value="Cherries" style="shape=partialRectangle;html=1;whiteSpace=wrap;connectable=0;strokeColor=inherit;overflow=hidden;fillColor=none;top=0;left=0;bottom=0;right=0;pointerEvents=1;fontFamily=Helvetica;fontSize=10;fontColor=#000000;" vertex="1" parent="j4Oqm9sxDXDtLcWen2c1-578">
          <mxGeometry width="60" height="40" as="geometry">
            <mxRectangle width="60" height="40" as="alternateBounds" />
          </mxGeometry>
        </mxCell>
        <mxCell id="j4Oqm9sxDXDtLcWen2c1-580" style="shape=partialRectangle;html=1;whiteSpace=wrap;connectable=0;strokeColor=inherit;overflow=hidden;fillColor=none;top=0;left=0;bottom=0;right=0;pointerEvents=1;fontFamily=Helvetica;fontSize=14;fontColor=#000000;" vertex="1" parent="j4Oqm9sxDXDtLcWen2c1-578">
          <mxGeometry x="60" width="60" height="40" as="geometry">
            <mxRectangle width="60" height="40" as="alternateBounds" />
          </mxGeometry>
        </mxCell>
        <mxCell id="j4Oqm9sxDXDtLcWen2c1-581" style="shape=partialRectangle;html=1;whiteSpace=wrap;connectable=0;strokeColor=inherit;overflow=hidden;fillColor=none;top=0;left=0;bottom=0;right=0;pointerEvents=1;fontFamily=Helvetica;fontSize=14;fontColor=#000000;" vertex="1" parent="j4Oqm9sxDXDtLcWen2c1-578">
          <mxGeometry x="120" width="60" height="40" as="geometry">
            <mxRectangle width="60" height="40" as="alternateBounds" />
          </mxGeometry>
        </mxCell>
        <mxCell id="j4Oqm9sxDXDtLcWen2c1-582" style="shape=partialRectangle;html=1;whiteSpace=wrap;connectable=0;strokeColor=inherit;overflow=hidden;fillColor=none;top=0;left=0;bottom=0;right=0;pointerEvents=1;fontFamily=Helvetica;fontSize=14;fontColor=#000000;" vertex="1" parent="j4Oqm9sxDXDtLcWen2c1-578">
          <mxGeometry x="180" width="57" height="40" as="geometry">
            <mxRectangle width="57" height="40" as="alternateBounds" />
          </mxGeometry>
        </mxCell>
        <mxCell id="j4Oqm9sxDXDtLcWen2c1-583" style="shape=partialRectangle;html=1;whiteSpace=wrap;connectable=0;strokeColor=inherit;overflow=hidden;fillColor=none;top=0;left=0;bottom=0;right=0;pointerEvents=1;fontFamily=Helvetica;fontSize=14;fontColor=#000000;" vertex="1" parent="j4Oqm9sxDXDtLcWen2c1-578">
          <mxGeometry x="237" width="63" height="40" as="geometry">
            <mxRectangle width="63" height="40" as="alternateBounds" />
          </mxGeometry>
        </mxCell>
        <mxCell id="j4Oqm9sxDXDtLcWen2c1-584" style="shape=partialRectangle;html=1;whiteSpace=wrap;connectable=0;strokeColor=inherit;overflow=hidden;fillColor=none;top=0;left=0;bottom=0;right=0;pointerEvents=1;fontFamily=Helvetica;fontSize=14;fontColor=#000000;" vertex="1" parent="j4Oqm9sxDXDtLcWen2c1-578">
          <mxGeometry x="300" width="60" height="40" as="geometry">
            <mxRectangle width="60" height="40" as="alternateBounds" />
          </mxGeometry>
        </mxCell>
        <mxCell id="j4Oqm9sxDXDtLcWen2c1-585" style="shape=partialRectangle;html=1;whiteSpace=wrap;connectable=0;strokeColor=inherit;overflow=hidden;fillColor=none;top=0;left=0;bottom=0;right=0;pointerEvents=1;fontFamily=Helvetica;fontSize=14;fontColor=#000000;" vertex="1" parent="j4Oqm9sxDXDtLcWen2c1-578">
          <mxGeometry x="360" width="60" height="40" as="geometry">
            <mxRectangle width="60" height="40" as="alternateBounds" />
          </mxGeometry>
        </mxCell>
        <mxCell id="j4Oqm9sxDXDtLcWen2c1-586" style="shape=partialRectangle;html=1;whiteSpace=wrap;connectable=0;strokeColor=inherit;overflow=hidden;fillColor=none;top=0;left=0;bottom=0;right=0;pointerEvents=1;fontFamily=Helvetica;fontSize=14;fontColor=#000000;" vertex="1" parent="j4Oqm9sxDXDtLcWen2c1-578">
          <mxGeometry x="420" width="60" height="40" as="geometry">
            <mxRectangle width="60" height="40" as="alternateBounds" />
          </mxGeometry>
        </mxCell>
        <mxCell id="j4Oqm9sxDXDtLcWen2c1-587" style="shape=partialRectangle;html=1;whiteSpace=wrap;connectable=0;strokeColor=inherit;overflow=hidden;fillColor=none;top=0;left=0;bottom=0;right=0;pointerEvents=1;fontFamily=Helvetica;fontSize=14;fontColor=#000000;" vertex="1" parent="j4Oqm9sxDXDtLcWen2c1-578">
          <mxGeometry x="480" width="60" height="40" as="geometry">
            <mxRectangle width="60" height="40" as="alternateBounds" />
          </mxGeometry>
        </mxCell>
        <mxCell id="j4Oqm9sxDXDtLcWen2c1-588" style="shape=partialRectangle;html=1;whiteSpace=wrap;connectable=0;strokeColor=inherit;overflow=hidden;fillColor=none;top=0;left=0;bottom=0;right=0;pointerEvents=1;fontFamily=Helvetica;fontSize=14;fontColor=#000000;" vertex="1" parent="j4Oqm9sxDXDtLcWen2c1-578">
          <mxGeometry x="540" width="60" height="40" as="geometry">
            <mxRectangle width="60" height="40" as="alternateBounds" />
          </mxGeometry>
        </mxCell>
        <mxCell id="j4Oqm9sxDXDtLcWen2c1-589" style="shape=partialRectangle;html=1;whiteSpace=wrap;connectable=0;strokeColor=inherit;overflow=hidden;fillColor=none;top=0;left=0;bottom=0;right=0;pointerEvents=1;fontFamily=Helvetica;fontSize=14;fontColor=#000000;" vertex="1" parent="j4Oqm9sxDXDtLcWen2c1-578">
          <mxGeometry x="600" width="60" height="40" as="geometry">
            <mxRectangle width="60" height="40" as="alternateBounds" />
          </mxGeometry>
        </mxCell>
        <mxCell id="j4Oqm9sxDXDtLcWen2c1-590" style="shape=partialRectangle;html=1;whiteSpace=wrap;connectable=0;strokeColor=inherit;overflow=hidden;fillColor=none;top=0;left=0;bottom=0;right=0;pointerEvents=1;fontFamily=Helvetica;fontSize=14;fontColor=#000000;" vertex="1" parent="j4Oqm9sxDXDtLcWen2c1-578">
          <mxGeometry x="660" width="60" height="40" as="geometry">
            <mxRectangle width="60" height="40" as="alternateBounds" />
          </mxGeometry>
        </mxCell>
        <mxCell id="j4Oqm9sxDXDtLcWen2c1-591" style="shape=partialRectangle;html=1;whiteSpace=wrap;connectable=0;strokeColor=inherit;overflow=hidden;fillColor=none;top=0;left=0;bottom=0;right=0;pointerEvents=1;fontFamily=Helvetica;fontSize=14;fontColor=#000000;" vertex="1" parent="j4Oqm9sxDXDtLcWen2c1-578">
          <mxGeometry x="720" width="60" height="40" as="geometry">
            <mxRectangle width="60" height="40" as="alternateBounds" />
          </mxGeometry>
        </mxCell>
        <mxCell id="j4Oqm9sxDXDtLcWen2c1-256" value="" style="shape=tableRow;horizontal=0;startSize=0;swimlaneHead=0;swimlaneBody=0;strokeColor=inherit;top=0;left=0;bottom=0;right=0;collapsible=0;dropTarget=0;fillColor=none;points=[[0,0.5],[1,0.5]];portConstraint=eastwest;fontFamily=Helvetica;fontSize=14;fontColor=#000000;" vertex="1" parent="j4Oqm9sxDXDtLcWen2c1-227">
          <mxGeometry y="240" width="779.75" height="40" as="geometry" />
        </mxCell>
        <mxCell id="j4Oqm9sxDXDtLcWen2c1-257" value="Currants" style="shape=partialRectangle;html=1;whiteSpace=wrap;connectable=0;strokeColor=inherit;overflow=hidden;fillColor=none;top=0;left=0;bottom=0;right=0;pointerEvents=1;fontFamily=Helvetica;fontSize=10;fontColor=#000000;" vertex="1" parent="j4Oqm9sxDXDtLcWen2c1-256">
          <mxGeometry width="60" height="40" as="geometry">
            <mxRectangle width="60" height="40" as="alternateBounds" />
          </mxGeometry>
        </mxCell>
        <mxCell id="j4Oqm9sxDXDtLcWen2c1-258" value="" style="shape=partialRectangle;html=1;whiteSpace=wrap;connectable=0;strokeColor=inherit;overflow=hidden;fillColor=none;top=0;left=0;bottom=0;right=0;pointerEvents=1;fontFamily=Helvetica;fontSize=14;fontColor=#000000;" vertex="1" parent="j4Oqm9sxDXDtLcWen2c1-256">
          <mxGeometry x="60" width="60" height="40" as="geometry">
            <mxRectangle width="60" height="40" as="alternateBounds" />
          </mxGeometry>
        </mxCell>
        <mxCell id="j4Oqm9sxDXDtLcWen2c1-259" value="" style="shape=partialRectangle;html=1;whiteSpace=wrap;connectable=0;strokeColor=inherit;overflow=hidden;fillColor=none;top=0;left=0;bottom=0;right=0;pointerEvents=1;fontFamily=Helvetica;fontSize=14;fontColor=#000000;" vertex="1" parent="j4Oqm9sxDXDtLcWen2c1-256">
          <mxGeometry x="120" width="60" height="40" as="geometry">
            <mxRectangle width="60" height="40" as="alternateBounds" />
          </mxGeometry>
        </mxCell>
        <mxCell id="j4Oqm9sxDXDtLcWen2c1-260" value="" style="shape=partialRectangle;html=1;whiteSpace=wrap;connectable=0;strokeColor=inherit;overflow=hidden;fillColor=none;top=0;left=0;bottom=0;right=0;pointerEvents=1;fontFamily=Helvetica;fontSize=14;fontColor=#000000;" vertex="1" parent="j4Oqm9sxDXDtLcWen2c1-256">
          <mxGeometry x="180" width="57" height="40" as="geometry">
            <mxRectangle width="57" height="40" as="alternateBounds" />
          </mxGeometry>
        </mxCell>
        <mxCell id="j4Oqm9sxDXDtLcWen2c1-261" value="" style="shape=partialRectangle;html=1;whiteSpace=wrap;connectable=0;strokeColor=inherit;overflow=hidden;fillColor=none;top=0;left=0;bottom=0;right=0;pointerEvents=1;fontFamily=Helvetica;fontSize=14;fontColor=#000000;" vertex="1" parent="j4Oqm9sxDXDtLcWen2c1-256">
          <mxGeometry x="237" width="63" height="40" as="geometry">
            <mxRectangle width="63" height="40" as="alternateBounds" />
          </mxGeometry>
        </mxCell>
        <mxCell id="j4Oqm9sxDXDtLcWen2c1-262" value="" style="shape=partialRectangle;html=1;whiteSpace=wrap;connectable=0;strokeColor=inherit;overflow=hidden;fillColor=none;top=0;left=0;bottom=0;right=0;pointerEvents=1;fontFamily=Helvetica;fontSize=14;fontColor=#000000;" vertex="1" parent="j4Oqm9sxDXDtLcWen2c1-256">
          <mxGeometry x="300" width="60" height="40" as="geometry">
            <mxRectangle width="60" height="40" as="alternateBounds" />
          </mxGeometry>
        </mxCell>
        <mxCell id="j4Oqm9sxDXDtLcWen2c1-263" value="" style="shape=partialRectangle;html=1;whiteSpace=wrap;connectable=0;strokeColor=inherit;overflow=hidden;fillColor=none;top=0;left=0;bottom=0;right=0;pointerEvents=1;fontFamily=Helvetica;fontSize=14;fontColor=#000000;" vertex="1" parent="j4Oqm9sxDXDtLcWen2c1-256">
          <mxGeometry x="360" width="60" height="40" as="geometry">
            <mxRectangle width="60" height="40" as="alternateBounds" />
          </mxGeometry>
        </mxCell>
        <mxCell id="j4Oqm9sxDXDtLcWen2c1-264" value="" style="shape=partialRectangle;html=1;whiteSpace=wrap;connectable=0;strokeColor=inherit;overflow=hidden;fillColor=none;top=0;left=0;bottom=0;right=0;pointerEvents=1;fontFamily=Helvetica;fontSize=14;fontColor=#000000;" vertex="1" parent="j4Oqm9sxDXDtLcWen2c1-256">
          <mxGeometry x="420" width="60" height="40" as="geometry">
            <mxRectangle width="60" height="40" as="alternateBounds" />
          </mxGeometry>
        </mxCell>
        <mxCell id="j4Oqm9sxDXDtLcWen2c1-265" value="" style="shape=partialRectangle;html=1;whiteSpace=wrap;connectable=0;strokeColor=inherit;overflow=hidden;fillColor=none;top=0;left=0;bottom=0;right=0;pointerEvents=1;fontFamily=Helvetica;fontSize=14;fontColor=#000000;" vertex="1" parent="j4Oqm9sxDXDtLcWen2c1-256">
          <mxGeometry x="480" width="60" height="40" as="geometry">
            <mxRectangle width="60" height="40" as="alternateBounds" />
          </mxGeometry>
        </mxCell>
        <mxCell id="j4Oqm9sxDXDtLcWen2c1-266" value="" style="shape=partialRectangle;html=1;whiteSpace=wrap;connectable=0;strokeColor=inherit;overflow=hidden;fillColor=none;top=0;left=0;bottom=0;right=0;pointerEvents=1;fontFamily=Helvetica;fontSize=14;fontColor=#000000;" vertex="1" parent="j4Oqm9sxDXDtLcWen2c1-256">
          <mxGeometry x="540" width="60" height="40" as="geometry">
            <mxRectangle width="60" height="40" as="alternateBounds" />
          </mxGeometry>
        </mxCell>
        <mxCell id="j4Oqm9sxDXDtLcWen2c1-267" value="" style="shape=partialRectangle;html=1;whiteSpace=wrap;connectable=0;strokeColor=inherit;overflow=hidden;fillColor=none;top=0;left=0;bottom=0;right=0;pointerEvents=1;fontFamily=Helvetica;fontSize=14;fontColor=#000000;" vertex="1" parent="j4Oqm9sxDXDtLcWen2c1-256">
          <mxGeometry x="600" width="60" height="40" as="geometry">
            <mxRectangle width="60" height="40" as="alternateBounds" />
          </mxGeometry>
        </mxCell>
        <mxCell id="j4Oqm9sxDXDtLcWen2c1-268" value="" style="shape=partialRectangle;html=1;whiteSpace=wrap;connectable=0;strokeColor=inherit;overflow=hidden;fillColor=none;top=0;left=0;bottom=0;right=0;pointerEvents=1;fontFamily=Helvetica;fontSize=14;fontColor=#000000;" vertex="1" parent="j4Oqm9sxDXDtLcWen2c1-256">
          <mxGeometry x="660" width="60" height="40" as="geometry">
            <mxRectangle width="60" height="40" as="alternateBounds" />
          </mxGeometry>
        </mxCell>
        <mxCell id="j4Oqm9sxDXDtLcWen2c1-269" value="" style="shape=partialRectangle;html=1;whiteSpace=wrap;connectable=0;strokeColor=inherit;overflow=hidden;fillColor=none;top=0;left=0;bottom=0;right=0;pointerEvents=1;fontFamily=Helvetica;fontSize=14;fontColor=#000000;" vertex="1" parent="j4Oqm9sxDXDtLcWen2c1-256">
          <mxGeometry x="720" width="60" height="40" as="geometry">
            <mxRectangle width="60" height="40" as="alternateBounds" />
          </mxGeometry>
        </mxCell>
        <mxCell id="j4Oqm9sxDXDtLcWen2c1-606" style="shape=tableRow;horizontal=0;startSize=0;swimlaneHead=0;swimlaneBody=0;strokeColor=inherit;top=0;left=0;bottom=0;right=0;collapsible=0;dropTarget=0;fillColor=none;points=[[0,0.5],[1,0.5]];portConstraint=eastwest;fontFamily=Helvetica;fontSize=14;fontColor=#000000;" vertex="1" parent="j4Oqm9sxDXDtLcWen2c1-227">
          <mxGeometry y="280" width="779.75" height="40" as="geometry" />
        </mxCell>
        <mxCell id="j4Oqm9sxDXDtLcWen2c1-607" value="Figs" style="shape=partialRectangle;html=1;whiteSpace=wrap;connectable=0;strokeColor=inherit;overflow=hidden;fillColor=none;top=0;left=0;bottom=0;right=0;pointerEvents=1;fontFamily=Helvetica;fontSize=10;fontColor=#000000;" vertex="1" parent="j4Oqm9sxDXDtLcWen2c1-606">
          <mxGeometry width="60" height="40" as="geometry">
            <mxRectangle width="60" height="40" as="alternateBounds" />
          </mxGeometry>
        </mxCell>
        <mxCell id="j4Oqm9sxDXDtLcWen2c1-608" style="shape=partialRectangle;html=1;whiteSpace=wrap;connectable=0;strokeColor=inherit;overflow=hidden;fillColor=none;top=0;left=0;bottom=0;right=0;pointerEvents=1;fontFamily=Helvetica;fontSize=14;fontColor=#000000;" vertex="1" parent="j4Oqm9sxDXDtLcWen2c1-606">
          <mxGeometry x="60" width="60" height="40" as="geometry">
            <mxRectangle width="60" height="40" as="alternateBounds" />
          </mxGeometry>
        </mxCell>
        <mxCell id="j4Oqm9sxDXDtLcWen2c1-609" style="shape=partialRectangle;html=1;whiteSpace=wrap;connectable=0;strokeColor=inherit;overflow=hidden;fillColor=none;top=0;left=0;bottom=0;right=0;pointerEvents=1;fontFamily=Helvetica;fontSize=14;fontColor=#000000;" vertex="1" parent="j4Oqm9sxDXDtLcWen2c1-606">
          <mxGeometry x="120" width="60" height="40" as="geometry">
            <mxRectangle width="60" height="40" as="alternateBounds" />
          </mxGeometry>
        </mxCell>
        <mxCell id="j4Oqm9sxDXDtLcWen2c1-610" style="shape=partialRectangle;html=1;whiteSpace=wrap;connectable=0;strokeColor=inherit;overflow=hidden;fillColor=none;top=0;left=0;bottom=0;right=0;pointerEvents=1;fontFamily=Helvetica;fontSize=14;fontColor=#000000;" vertex="1" parent="j4Oqm9sxDXDtLcWen2c1-606">
          <mxGeometry x="180" width="57" height="40" as="geometry">
            <mxRectangle width="57" height="40" as="alternateBounds" />
          </mxGeometry>
        </mxCell>
        <mxCell id="j4Oqm9sxDXDtLcWen2c1-611" style="shape=partialRectangle;html=1;whiteSpace=wrap;connectable=0;strokeColor=inherit;overflow=hidden;fillColor=none;top=0;left=0;bottom=0;right=0;pointerEvents=1;fontFamily=Helvetica;fontSize=14;fontColor=#000000;" vertex="1" parent="j4Oqm9sxDXDtLcWen2c1-606">
          <mxGeometry x="237" width="63" height="40" as="geometry">
            <mxRectangle width="63" height="40" as="alternateBounds" />
          </mxGeometry>
        </mxCell>
        <mxCell id="j4Oqm9sxDXDtLcWen2c1-612" style="shape=partialRectangle;html=1;whiteSpace=wrap;connectable=0;strokeColor=inherit;overflow=hidden;fillColor=none;top=0;left=0;bottom=0;right=0;pointerEvents=1;fontFamily=Helvetica;fontSize=14;fontColor=#000000;" vertex="1" parent="j4Oqm9sxDXDtLcWen2c1-606">
          <mxGeometry x="300" width="60" height="40" as="geometry">
            <mxRectangle width="60" height="40" as="alternateBounds" />
          </mxGeometry>
        </mxCell>
        <mxCell id="j4Oqm9sxDXDtLcWen2c1-613" style="shape=partialRectangle;html=1;whiteSpace=wrap;connectable=0;strokeColor=inherit;overflow=hidden;fillColor=none;top=0;left=0;bottom=0;right=0;pointerEvents=1;fontFamily=Helvetica;fontSize=14;fontColor=#000000;" vertex="1" parent="j4Oqm9sxDXDtLcWen2c1-606">
          <mxGeometry x="360" width="60" height="40" as="geometry">
            <mxRectangle width="60" height="40" as="alternateBounds" />
          </mxGeometry>
        </mxCell>
        <mxCell id="j4Oqm9sxDXDtLcWen2c1-614" style="shape=partialRectangle;html=1;whiteSpace=wrap;connectable=0;strokeColor=inherit;overflow=hidden;fillColor=none;top=0;left=0;bottom=0;right=0;pointerEvents=1;fontFamily=Helvetica;fontSize=14;fontColor=#000000;" vertex="1" parent="j4Oqm9sxDXDtLcWen2c1-606">
          <mxGeometry x="420" width="60" height="40" as="geometry">
            <mxRectangle width="60" height="40" as="alternateBounds" />
          </mxGeometry>
        </mxCell>
        <mxCell id="j4Oqm9sxDXDtLcWen2c1-615" style="shape=partialRectangle;html=1;whiteSpace=wrap;connectable=0;strokeColor=inherit;overflow=hidden;fillColor=none;top=0;left=0;bottom=0;right=0;pointerEvents=1;fontFamily=Helvetica;fontSize=14;fontColor=#000000;" vertex="1" parent="j4Oqm9sxDXDtLcWen2c1-606">
          <mxGeometry x="480" width="60" height="40" as="geometry">
            <mxRectangle width="60" height="40" as="alternateBounds" />
          </mxGeometry>
        </mxCell>
        <mxCell id="j4Oqm9sxDXDtLcWen2c1-616" style="shape=partialRectangle;html=1;whiteSpace=wrap;connectable=0;strokeColor=inherit;overflow=hidden;fillColor=none;top=0;left=0;bottom=0;right=0;pointerEvents=1;fontFamily=Helvetica;fontSize=14;fontColor=#000000;" vertex="1" parent="j4Oqm9sxDXDtLcWen2c1-606">
          <mxGeometry x="540" width="60" height="40" as="geometry">
            <mxRectangle width="60" height="40" as="alternateBounds" />
          </mxGeometry>
        </mxCell>
        <mxCell id="j4Oqm9sxDXDtLcWen2c1-617" style="shape=partialRectangle;html=1;whiteSpace=wrap;connectable=0;strokeColor=inherit;overflow=hidden;fillColor=none;top=0;left=0;bottom=0;right=0;pointerEvents=1;fontFamily=Helvetica;fontSize=14;fontColor=#000000;" vertex="1" parent="j4Oqm9sxDXDtLcWen2c1-606">
          <mxGeometry x="600" width="60" height="40" as="geometry">
            <mxRectangle width="60" height="40" as="alternateBounds" />
          </mxGeometry>
        </mxCell>
        <mxCell id="j4Oqm9sxDXDtLcWen2c1-618" style="shape=partialRectangle;html=1;whiteSpace=wrap;connectable=0;strokeColor=inherit;overflow=hidden;fillColor=none;top=0;left=0;bottom=0;right=0;pointerEvents=1;fontFamily=Helvetica;fontSize=14;fontColor=#000000;" vertex="1" parent="j4Oqm9sxDXDtLcWen2c1-606">
          <mxGeometry x="660" width="60" height="40" as="geometry">
            <mxRectangle width="60" height="40" as="alternateBounds" />
          </mxGeometry>
        </mxCell>
        <mxCell id="j4Oqm9sxDXDtLcWen2c1-619" style="shape=partialRectangle;html=1;whiteSpace=wrap;connectable=0;strokeColor=inherit;overflow=hidden;fillColor=none;top=0;left=0;bottom=0;right=0;pointerEvents=1;fontFamily=Helvetica;fontSize=14;fontColor=#000000;" vertex="1" parent="j4Oqm9sxDXDtLcWen2c1-606">
          <mxGeometry x="720" width="60" height="40" as="geometry">
            <mxRectangle width="60" height="40" as="alternateBounds" />
          </mxGeometry>
        </mxCell>
        <mxCell id="j4Oqm9sxDXDtLcWen2c1-270" value="" style="shape=tableRow;horizontal=0;startSize=0;swimlaneHead=0;swimlaneBody=0;strokeColor=inherit;top=0;left=0;bottom=0;right=0;collapsible=0;dropTarget=0;fillColor=none;points=[[0,0.5],[1,0.5]];portConstraint=eastwest;fontFamily=Helvetica;fontSize=14;fontColor=#000000;" vertex="1" parent="j4Oqm9sxDXDtLcWen2c1-227">
          <mxGeometry y="320" width="779.75" height="40" as="geometry" />
        </mxCell>
        <mxCell id="j4Oqm9sxDXDtLcWen2c1-271" value="Grapes" style="shape=partialRectangle;html=1;whiteSpace=wrap;connectable=0;strokeColor=inherit;overflow=hidden;fillColor=none;top=0;left=0;bottom=0;right=0;pointerEvents=1;fontFamily=Helvetica;fontSize=10;fontColor=#000000;" vertex="1" parent="j4Oqm9sxDXDtLcWen2c1-270">
          <mxGeometry width="60" height="40" as="geometry">
            <mxRectangle width="60" height="40" as="alternateBounds" />
          </mxGeometry>
        </mxCell>
        <mxCell id="j4Oqm9sxDXDtLcWen2c1-272" value="" style="shape=partialRectangle;html=1;whiteSpace=wrap;connectable=0;strokeColor=inherit;overflow=hidden;fillColor=none;top=0;left=0;bottom=0;right=0;pointerEvents=1;fontFamily=Helvetica;fontSize=14;fontColor=#000000;" vertex="1" parent="j4Oqm9sxDXDtLcWen2c1-270">
          <mxGeometry x="60" width="60" height="40" as="geometry">
            <mxRectangle width="60" height="40" as="alternateBounds" />
          </mxGeometry>
        </mxCell>
        <mxCell id="j4Oqm9sxDXDtLcWen2c1-273" value="" style="shape=partialRectangle;html=1;whiteSpace=wrap;connectable=0;strokeColor=inherit;overflow=hidden;fillColor=none;top=0;left=0;bottom=0;right=0;pointerEvents=1;fontFamily=Helvetica;fontSize=14;fontColor=#000000;" vertex="1" parent="j4Oqm9sxDXDtLcWen2c1-270">
          <mxGeometry x="120" width="60" height="40" as="geometry">
            <mxRectangle width="60" height="40" as="alternateBounds" />
          </mxGeometry>
        </mxCell>
        <mxCell id="j4Oqm9sxDXDtLcWen2c1-274" value="" style="shape=partialRectangle;html=1;whiteSpace=wrap;connectable=0;strokeColor=inherit;overflow=hidden;fillColor=none;top=0;left=0;bottom=0;right=0;pointerEvents=1;fontFamily=Helvetica;fontSize=14;fontColor=#000000;" vertex="1" parent="j4Oqm9sxDXDtLcWen2c1-270">
          <mxGeometry x="180" width="57" height="40" as="geometry">
            <mxRectangle width="57" height="40" as="alternateBounds" />
          </mxGeometry>
        </mxCell>
        <mxCell id="j4Oqm9sxDXDtLcWen2c1-275" value="" style="shape=partialRectangle;html=1;whiteSpace=wrap;connectable=0;strokeColor=inherit;overflow=hidden;fillColor=none;top=0;left=0;bottom=0;right=0;pointerEvents=1;fontFamily=Helvetica;fontSize=14;fontColor=#000000;" vertex="1" parent="j4Oqm9sxDXDtLcWen2c1-270">
          <mxGeometry x="237" width="63" height="40" as="geometry">
            <mxRectangle width="63" height="40" as="alternateBounds" />
          </mxGeometry>
        </mxCell>
        <mxCell id="j4Oqm9sxDXDtLcWen2c1-276" value="" style="shape=partialRectangle;html=1;whiteSpace=wrap;connectable=0;strokeColor=inherit;overflow=hidden;fillColor=none;top=0;left=0;bottom=0;right=0;pointerEvents=1;fontFamily=Helvetica;fontSize=14;fontColor=#000000;" vertex="1" parent="j4Oqm9sxDXDtLcWen2c1-270">
          <mxGeometry x="300" width="60" height="40" as="geometry">
            <mxRectangle width="60" height="40" as="alternateBounds" />
          </mxGeometry>
        </mxCell>
        <mxCell id="j4Oqm9sxDXDtLcWen2c1-277" value="" style="shape=partialRectangle;html=1;whiteSpace=wrap;connectable=0;strokeColor=inherit;overflow=hidden;fillColor=none;top=0;left=0;bottom=0;right=0;pointerEvents=1;fontFamily=Helvetica;fontSize=14;fontColor=#000000;" vertex="1" parent="j4Oqm9sxDXDtLcWen2c1-270">
          <mxGeometry x="360" width="60" height="40" as="geometry">
            <mxRectangle width="60" height="40" as="alternateBounds" />
          </mxGeometry>
        </mxCell>
        <mxCell id="j4Oqm9sxDXDtLcWen2c1-278" value="" style="shape=partialRectangle;html=1;whiteSpace=wrap;connectable=0;strokeColor=inherit;overflow=hidden;fillColor=none;top=0;left=0;bottom=0;right=0;pointerEvents=1;fontFamily=Helvetica;fontSize=14;fontColor=#000000;" vertex="1" parent="j4Oqm9sxDXDtLcWen2c1-270">
          <mxGeometry x="420" width="60" height="40" as="geometry">
            <mxRectangle width="60" height="40" as="alternateBounds" />
          </mxGeometry>
        </mxCell>
        <mxCell id="j4Oqm9sxDXDtLcWen2c1-279" value="" style="shape=partialRectangle;html=1;whiteSpace=wrap;connectable=0;strokeColor=inherit;overflow=hidden;fillColor=none;top=0;left=0;bottom=0;right=0;pointerEvents=1;fontFamily=Helvetica;fontSize=14;fontColor=#000000;" vertex="1" parent="j4Oqm9sxDXDtLcWen2c1-270">
          <mxGeometry x="480" width="60" height="40" as="geometry">
            <mxRectangle width="60" height="40" as="alternateBounds" />
          </mxGeometry>
        </mxCell>
        <mxCell id="j4Oqm9sxDXDtLcWen2c1-280" value="" style="shape=partialRectangle;html=1;whiteSpace=wrap;connectable=0;strokeColor=inherit;overflow=hidden;fillColor=none;top=0;left=0;bottom=0;right=0;pointerEvents=1;fontFamily=Helvetica;fontSize=14;fontColor=#000000;" vertex="1" parent="j4Oqm9sxDXDtLcWen2c1-270">
          <mxGeometry x="540" width="60" height="40" as="geometry">
            <mxRectangle width="60" height="40" as="alternateBounds" />
          </mxGeometry>
        </mxCell>
        <mxCell id="j4Oqm9sxDXDtLcWen2c1-281" value="" style="shape=partialRectangle;html=1;whiteSpace=wrap;connectable=0;strokeColor=inherit;overflow=hidden;fillColor=none;top=0;left=0;bottom=0;right=0;pointerEvents=1;fontFamily=Helvetica;fontSize=14;fontColor=#000000;" vertex="1" parent="j4Oqm9sxDXDtLcWen2c1-270">
          <mxGeometry x="600" width="60" height="40" as="geometry">
            <mxRectangle width="60" height="40" as="alternateBounds" />
          </mxGeometry>
        </mxCell>
        <mxCell id="j4Oqm9sxDXDtLcWen2c1-282" value="" style="shape=partialRectangle;html=1;whiteSpace=wrap;connectable=0;strokeColor=inherit;overflow=hidden;fillColor=none;top=0;left=0;bottom=0;right=0;pointerEvents=1;fontFamily=Helvetica;fontSize=14;fontColor=#000000;" vertex="1" parent="j4Oqm9sxDXDtLcWen2c1-270">
          <mxGeometry x="660" width="60" height="40" as="geometry">
            <mxRectangle width="60" height="40" as="alternateBounds" />
          </mxGeometry>
        </mxCell>
        <mxCell id="j4Oqm9sxDXDtLcWen2c1-283" value="" style="shape=partialRectangle;html=1;whiteSpace=wrap;connectable=0;strokeColor=inherit;overflow=hidden;fillColor=none;top=0;left=0;bottom=0;right=0;pointerEvents=1;fontFamily=Helvetica;fontSize=14;fontColor=#000000;" vertex="1" parent="j4Oqm9sxDXDtLcWen2c1-270">
          <mxGeometry x="720" width="60" height="40" as="geometry">
            <mxRectangle width="60" height="40" as="alternateBounds" />
          </mxGeometry>
        </mxCell>
        <mxCell id="j4Oqm9sxDXDtLcWen2c1-592" style="shape=tableRow;horizontal=0;startSize=0;swimlaneHead=0;swimlaneBody=0;strokeColor=inherit;top=0;left=0;bottom=0;right=0;collapsible=0;dropTarget=0;fillColor=none;points=[[0,0.5],[1,0.5]];portConstraint=eastwest;fontFamily=Helvetica;fontSize=14;fontColor=#000000;" vertex="1" parent="j4Oqm9sxDXDtLcWen2c1-227">
          <mxGeometry y="360" width="779.75" height="40" as="geometry" />
        </mxCell>
        <mxCell id="j4Oqm9sxDXDtLcWen2c1-593" value="Nectarines" style="shape=partialRectangle;html=1;whiteSpace=wrap;connectable=0;strokeColor=inherit;overflow=hidden;fillColor=none;top=0;left=0;bottom=0;right=0;pointerEvents=1;fontFamily=Helvetica;fontSize=10;fontColor=#000000;" vertex="1" parent="j4Oqm9sxDXDtLcWen2c1-592">
          <mxGeometry width="60" height="40" as="geometry">
            <mxRectangle width="60" height="40" as="alternateBounds" />
          </mxGeometry>
        </mxCell>
        <mxCell id="j4Oqm9sxDXDtLcWen2c1-594" style="shape=partialRectangle;html=1;whiteSpace=wrap;connectable=0;strokeColor=inherit;overflow=hidden;fillColor=none;top=0;left=0;bottom=0;right=0;pointerEvents=1;fontFamily=Helvetica;fontSize=14;fontColor=#000000;" vertex="1" parent="j4Oqm9sxDXDtLcWen2c1-592">
          <mxGeometry x="60" width="60" height="40" as="geometry">
            <mxRectangle width="60" height="40" as="alternateBounds" />
          </mxGeometry>
        </mxCell>
        <mxCell id="j4Oqm9sxDXDtLcWen2c1-595" style="shape=partialRectangle;html=1;whiteSpace=wrap;connectable=0;strokeColor=inherit;overflow=hidden;fillColor=none;top=0;left=0;bottom=0;right=0;pointerEvents=1;fontFamily=Helvetica;fontSize=14;fontColor=#000000;" vertex="1" parent="j4Oqm9sxDXDtLcWen2c1-592">
          <mxGeometry x="120" width="60" height="40" as="geometry">
            <mxRectangle width="60" height="40" as="alternateBounds" />
          </mxGeometry>
        </mxCell>
        <mxCell id="j4Oqm9sxDXDtLcWen2c1-596" style="shape=partialRectangle;html=1;whiteSpace=wrap;connectable=0;strokeColor=inherit;overflow=hidden;fillColor=none;top=0;left=0;bottom=0;right=0;pointerEvents=1;fontFamily=Helvetica;fontSize=14;fontColor=#000000;" vertex="1" parent="j4Oqm9sxDXDtLcWen2c1-592">
          <mxGeometry x="180" width="57" height="40" as="geometry">
            <mxRectangle width="57" height="40" as="alternateBounds" />
          </mxGeometry>
        </mxCell>
        <mxCell id="j4Oqm9sxDXDtLcWen2c1-597" style="shape=partialRectangle;html=1;whiteSpace=wrap;connectable=0;strokeColor=inherit;overflow=hidden;fillColor=none;top=0;left=0;bottom=0;right=0;pointerEvents=1;fontFamily=Helvetica;fontSize=14;fontColor=#000000;" vertex="1" parent="j4Oqm9sxDXDtLcWen2c1-592">
          <mxGeometry x="237" width="63" height="40" as="geometry">
            <mxRectangle width="63" height="40" as="alternateBounds" />
          </mxGeometry>
        </mxCell>
        <mxCell id="j4Oqm9sxDXDtLcWen2c1-598" style="shape=partialRectangle;html=1;whiteSpace=wrap;connectable=0;strokeColor=inherit;overflow=hidden;fillColor=none;top=0;left=0;bottom=0;right=0;pointerEvents=1;fontFamily=Helvetica;fontSize=14;fontColor=#000000;" vertex="1" parent="j4Oqm9sxDXDtLcWen2c1-592">
          <mxGeometry x="300" width="60" height="40" as="geometry">
            <mxRectangle width="60" height="40" as="alternateBounds" />
          </mxGeometry>
        </mxCell>
        <mxCell id="j4Oqm9sxDXDtLcWen2c1-599" style="shape=partialRectangle;html=1;whiteSpace=wrap;connectable=0;strokeColor=inherit;overflow=hidden;fillColor=none;top=0;left=0;bottom=0;right=0;pointerEvents=1;fontFamily=Helvetica;fontSize=14;fontColor=#000000;" vertex="1" parent="j4Oqm9sxDXDtLcWen2c1-592">
          <mxGeometry x="360" width="60" height="40" as="geometry">
            <mxRectangle width="60" height="40" as="alternateBounds" />
          </mxGeometry>
        </mxCell>
        <mxCell id="j4Oqm9sxDXDtLcWen2c1-600" style="shape=partialRectangle;html=1;whiteSpace=wrap;connectable=0;strokeColor=inherit;overflow=hidden;fillColor=none;top=0;left=0;bottom=0;right=0;pointerEvents=1;fontFamily=Helvetica;fontSize=14;fontColor=#000000;" vertex="1" parent="j4Oqm9sxDXDtLcWen2c1-592">
          <mxGeometry x="420" width="60" height="40" as="geometry">
            <mxRectangle width="60" height="40" as="alternateBounds" />
          </mxGeometry>
        </mxCell>
        <mxCell id="j4Oqm9sxDXDtLcWen2c1-601" style="shape=partialRectangle;html=1;whiteSpace=wrap;connectable=0;strokeColor=inherit;overflow=hidden;fillColor=none;top=0;left=0;bottom=0;right=0;pointerEvents=1;fontFamily=Helvetica;fontSize=14;fontColor=#000000;" vertex="1" parent="j4Oqm9sxDXDtLcWen2c1-592">
          <mxGeometry x="480" width="60" height="40" as="geometry">
            <mxRectangle width="60" height="40" as="alternateBounds" />
          </mxGeometry>
        </mxCell>
        <mxCell id="j4Oqm9sxDXDtLcWen2c1-602" style="shape=partialRectangle;html=1;whiteSpace=wrap;connectable=0;strokeColor=inherit;overflow=hidden;fillColor=none;top=0;left=0;bottom=0;right=0;pointerEvents=1;fontFamily=Helvetica;fontSize=14;fontColor=#000000;" vertex="1" parent="j4Oqm9sxDXDtLcWen2c1-592">
          <mxGeometry x="540" width="60" height="40" as="geometry">
            <mxRectangle width="60" height="40" as="alternateBounds" />
          </mxGeometry>
        </mxCell>
        <mxCell id="j4Oqm9sxDXDtLcWen2c1-603" style="shape=partialRectangle;html=1;whiteSpace=wrap;connectable=0;strokeColor=inherit;overflow=hidden;fillColor=none;top=0;left=0;bottom=0;right=0;pointerEvents=1;fontFamily=Helvetica;fontSize=14;fontColor=#000000;" vertex="1" parent="j4Oqm9sxDXDtLcWen2c1-592">
          <mxGeometry x="600" width="60" height="40" as="geometry">
            <mxRectangle width="60" height="40" as="alternateBounds" />
          </mxGeometry>
        </mxCell>
        <mxCell id="j4Oqm9sxDXDtLcWen2c1-604" style="shape=partialRectangle;html=1;whiteSpace=wrap;connectable=0;strokeColor=inherit;overflow=hidden;fillColor=none;top=0;left=0;bottom=0;right=0;pointerEvents=1;fontFamily=Helvetica;fontSize=14;fontColor=#000000;" vertex="1" parent="j4Oqm9sxDXDtLcWen2c1-592">
          <mxGeometry x="660" width="60" height="40" as="geometry">
            <mxRectangle width="60" height="40" as="alternateBounds" />
          </mxGeometry>
        </mxCell>
        <mxCell id="j4Oqm9sxDXDtLcWen2c1-605" style="shape=partialRectangle;html=1;whiteSpace=wrap;connectable=0;strokeColor=inherit;overflow=hidden;fillColor=none;top=0;left=0;bottom=0;right=0;pointerEvents=1;fontFamily=Helvetica;fontSize=14;fontColor=#000000;" vertex="1" parent="j4Oqm9sxDXDtLcWen2c1-592">
          <mxGeometry x="720" width="60" height="40" as="geometry">
            <mxRectangle width="60" height="40" as="alternateBounds" />
          </mxGeometry>
        </mxCell>
        <mxCell id="j4Oqm9sxDXDtLcWen2c1-620" style="shape=tableRow;horizontal=0;startSize=0;swimlaneHead=0;swimlaneBody=0;strokeColor=inherit;top=0;left=0;bottom=0;right=0;collapsible=0;dropTarget=0;fillColor=none;points=[[0,0.5],[1,0.5]];portConstraint=eastwest;fontFamily=Helvetica;fontSize=14;fontColor=#000000;" vertex="1" parent="j4Oqm9sxDXDtLcWen2c1-227">
          <mxGeometry y="400" width="779.75" height="40" as="geometry" />
        </mxCell>
        <mxCell id="j4Oqm9sxDXDtLcWen2c1-621" value="Peaches" style="shape=partialRectangle;html=1;whiteSpace=wrap;connectable=0;strokeColor=inherit;overflow=hidden;fillColor=none;top=0;left=0;bottom=0;right=0;pointerEvents=1;fontFamily=Helvetica;fontSize=10;fontColor=#000000;" vertex="1" parent="j4Oqm9sxDXDtLcWen2c1-620">
          <mxGeometry width="60" height="40" as="geometry">
            <mxRectangle width="60" height="40" as="alternateBounds" />
          </mxGeometry>
        </mxCell>
        <mxCell id="j4Oqm9sxDXDtLcWen2c1-622" style="shape=partialRectangle;html=1;whiteSpace=wrap;connectable=0;strokeColor=inherit;overflow=hidden;fillColor=none;top=0;left=0;bottom=0;right=0;pointerEvents=1;fontFamily=Helvetica;fontSize=14;fontColor=#000000;" vertex="1" parent="j4Oqm9sxDXDtLcWen2c1-620">
          <mxGeometry x="60" width="60" height="40" as="geometry">
            <mxRectangle width="60" height="40" as="alternateBounds" />
          </mxGeometry>
        </mxCell>
        <mxCell id="j4Oqm9sxDXDtLcWen2c1-623" style="shape=partialRectangle;html=1;whiteSpace=wrap;connectable=0;strokeColor=inherit;overflow=hidden;fillColor=none;top=0;left=0;bottom=0;right=0;pointerEvents=1;fontFamily=Helvetica;fontSize=14;fontColor=#000000;" vertex="1" parent="j4Oqm9sxDXDtLcWen2c1-620">
          <mxGeometry x="120" width="60" height="40" as="geometry">
            <mxRectangle width="60" height="40" as="alternateBounds" />
          </mxGeometry>
        </mxCell>
        <mxCell id="j4Oqm9sxDXDtLcWen2c1-624" style="shape=partialRectangle;html=1;whiteSpace=wrap;connectable=0;strokeColor=inherit;overflow=hidden;fillColor=none;top=0;left=0;bottom=0;right=0;pointerEvents=1;fontFamily=Helvetica;fontSize=14;fontColor=#000000;" vertex="1" parent="j4Oqm9sxDXDtLcWen2c1-620">
          <mxGeometry x="180" width="57" height="40" as="geometry">
            <mxRectangle width="57" height="40" as="alternateBounds" />
          </mxGeometry>
        </mxCell>
        <mxCell id="j4Oqm9sxDXDtLcWen2c1-625" style="shape=partialRectangle;html=1;whiteSpace=wrap;connectable=0;strokeColor=inherit;overflow=hidden;fillColor=none;top=0;left=0;bottom=0;right=0;pointerEvents=1;fontFamily=Helvetica;fontSize=14;fontColor=#000000;" vertex="1" parent="j4Oqm9sxDXDtLcWen2c1-620">
          <mxGeometry x="237" width="63" height="40" as="geometry">
            <mxRectangle width="63" height="40" as="alternateBounds" />
          </mxGeometry>
        </mxCell>
        <mxCell id="j4Oqm9sxDXDtLcWen2c1-626" style="shape=partialRectangle;html=1;whiteSpace=wrap;connectable=0;strokeColor=inherit;overflow=hidden;fillColor=none;top=0;left=0;bottom=0;right=0;pointerEvents=1;fontFamily=Helvetica;fontSize=14;fontColor=#000000;" vertex="1" parent="j4Oqm9sxDXDtLcWen2c1-620">
          <mxGeometry x="300" width="60" height="40" as="geometry">
            <mxRectangle width="60" height="40" as="alternateBounds" />
          </mxGeometry>
        </mxCell>
        <mxCell id="j4Oqm9sxDXDtLcWen2c1-627" style="shape=partialRectangle;html=1;whiteSpace=wrap;connectable=0;strokeColor=inherit;overflow=hidden;fillColor=none;top=0;left=0;bottom=0;right=0;pointerEvents=1;fontFamily=Helvetica;fontSize=14;fontColor=#000000;" vertex="1" parent="j4Oqm9sxDXDtLcWen2c1-620">
          <mxGeometry x="360" width="60" height="40" as="geometry">
            <mxRectangle width="60" height="40" as="alternateBounds" />
          </mxGeometry>
        </mxCell>
        <mxCell id="j4Oqm9sxDXDtLcWen2c1-628" style="shape=partialRectangle;html=1;whiteSpace=wrap;connectable=0;strokeColor=inherit;overflow=hidden;fillColor=none;top=0;left=0;bottom=0;right=0;pointerEvents=1;fontFamily=Helvetica;fontSize=14;fontColor=#000000;" vertex="1" parent="j4Oqm9sxDXDtLcWen2c1-620">
          <mxGeometry x="420" width="60" height="40" as="geometry">
            <mxRectangle width="60" height="40" as="alternateBounds" />
          </mxGeometry>
        </mxCell>
        <mxCell id="j4Oqm9sxDXDtLcWen2c1-629" style="shape=partialRectangle;html=1;whiteSpace=wrap;connectable=0;strokeColor=inherit;overflow=hidden;fillColor=none;top=0;left=0;bottom=0;right=0;pointerEvents=1;fontFamily=Helvetica;fontSize=14;fontColor=#000000;" vertex="1" parent="j4Oqm9sxDXDtLcWen2c1-620">
          <mxGeometry x="480" width="60" height="40" as="geometry">
            <mxRectangle width="60" height="40" as="alternateBounds" />
          </mxGeometry>
        </mxCell>
        <mxCell id="j4Oqm9sxDXDtLcWen2c1-630" style="shape=partialRectangle;html=1;whiteSpace=wrap;connectable=0;strokeColor=inherit;overflow=hidden;fillColor=none;top=0;left=0;bottom=0;right=0;pointerEvents=1;fontFamily=Helvetica;fontSize=14;fontColor=#000000;" vertex="1" parent="j4Oqm9sxDXDtLcWen2c1-620">
          <mxGeometry x="540" width="60" height="40" as="geometry">
            <mxRectangle width="60" height="40" as="alternateBounds" />
          </mxGeometry>
        </mxCell>
        <mxCell id="j4Oqm9sxDXDtLcWen2c1-631" style="shape=partialRectangle;html=1;whiteSpace=wrap;connectable=0;strokeColor=inherit;overflow=hidden;fillColor=none;top=0;left=0;bottom=0;right=0;pointerEvents=1;fontFamily=Helvetica;fontSize=14;fontColor=#000000;" vertex="1" parent="j4Oqm9sxDXDtLcWen2c1-620">
          <mxGeometry x="600" width="60" height="40" as="geometry">
            <mxRectangle width="60" height="40" as="alternateBounds" />
          </mxGeometry>
        </mxCell>
        <mxCell id="j4Oqm9sxDXDtLcWen2c1-632" style="shape=partialRectangle;html=1;whiteSpace=wrap;connectable=0;strokeColor=inherit;overflow=hidden;fillColor=none;top=0;left=0;bottom=0;right=0;pointerEvents=1;fontFamily=Helvetica;fontSize=14;fontColor=#000000;" vertex="1" parent="j4Oqm9sxDXDtLcWen2c1-620">
          <mxGeometry x="660" width="60" height="40" as="geometry">
            <mxRectangle width="60" height="40" as="alternateBounds" />
          </mxGeometry>
        </mxCell>
        <mxCell id="j4Oqm9sxDXDtLcWen2c1-633" style="shape=partialRectangle;html=1;whiteSpace=wrap;connectable=0;strokeColor=inherit;overflow=hidden;fillColor=none;top=0;left=0;bottom=0;right=0;pointerEvents=1;fontFamily=Helvetica;fontSize=14;fontColor=#000000;" vertex="1" parent="j4Oqm9sxDXDtLcWen2c1-620">
          <mxGeometry x="720" width="60" height="40" as="geometry">
            <mxRectangle width="60" height="40" as="alternateBounds" />
          </mxGeometry>
        </mxCell>
        <mxCell id="j4Oqm9sxDXDtLcWen2c1-284" value="" style="shape=tableRow;horizontal=0;startSize=0;swimlaneHead=0;swimlaneBody=0;strokeColor=inherit;top=0;left=0;bottom=0;right=0;collapsible=0;dropTarget=0;fillColor=none;points=[[0,0.5],[1,0.5]];portConstraint=eastwest;fontFamily=Helvetica;fontSize=14;fontColor=#000000;" vertex="1" parent="j4Oqm9sxDXDtLcWen2c1-227">
          <mxGeometry y="440" width="779.75" height="44" as="geometry" />
        </mxCell>
        <mxCell id="j4Oqm9sxDXDtLcWen2c1-285" value="Pears" style="shape=partialRectangle;html=1;whiteSpace=wrap;connectable=0;strokeColor=inherit;overflow=hidden;fillColor=none;top=0;left=0;bottom=0;right=0;pointerEvents=1;fontFamily=Helvetica;fontSize=10;fontColor=#000000;" vertex="1" parent="j4Oqm9sxDXDtLcWen2c1-284">
          <mxGeometry width="60" height="44" as="geometry">
            <mxRectangle width="60" height="44" as="alternateBounds" />
          </mxGeometry>
        </mxCell>
        <mxCell id="j4Oqm9sxDXDtLcWen2c1-286" value="" style="shape=partialRectangle;html=1;whiteSpace=wrap;connectable=0;strokeColor=inherit;overflow=hidden;fillColor=none;top=0;left=0;bottom=0;right=0;pointerEvents=1;fontFamily=Helvetica;fontSize=14;fontColor=#000000;" vertex="1" parent="j4Oqm9sxDXDtLcWen2c1-284">
          <mxGeometry x="60" width="60" height="44" as="geometry">
            <mxRectangle width="60" height="44" as="alternateBounds" />
          </mxGeometry>
        </mxCell>
        <mxCell id="j4Oqm9sxDXDtLcWen2c1-287" value="" style="shape=partialRectangle;html=1;whiteSpace=wrap;connectable=0;strokeColor=inherit;overflow=hidden;fillColor=none;top=0;left=0;bottom=0;right=0;pointerEvents=1;fontFamily=Helvetica;fontSize=14;fontColor=#000000;" vertex="1" parent="j4Oqm9sxDXDtLcWen2c1-284">
          <mxGeometry x="120" width="60" height="44" as="geometry">
            <mxRectangle width="60" height="44" as="alternateBounds" />
          </mxGeometry>
        </mxCell>
        <mxCell id="j4Oqm9sxDXDtLcWen2c1-288" value="" style="shape=partialRectangle;html=1;whiteSpace=wrap;connectable=0;strokeColor=inherit;overflow=hidden;fillColor=none;top=0;left=0;bottom=0;right=0;pointerEvents=1;fontFamily=Helvetica;fontSize=14;fontColor=#000000;" vertex="1" parent="j4Oqm9sxDXDtLcWen2c1-284">
          <mxGeometry x="180" width="57" height="44" as="geometry">
            <mxRectangle width="57" height="44" as="alternateBounds" />
          </mxGeometry>
        </mxCell>
        <mxCell id="j4Oqm9sxDXDtLcWen2c1-289" value="" style="shape=partialRectangle;html=1;whiteSpace=wrap;connectable=0;strokeColor=inherit;overflow=hidden;fillColor=none;top=0;left=0;bottom=0;right=0;pointerEvents=1;fontFamily=Helvetica;fontSize=14;fontColor=#000000;" vertex="1" parent="j4Oqm9sxDXDtLcWen2c1-284">
          <mxGeometry x="237" width="63" height="44" as="geometry">
            <mxRectangle width="63" height="44" as="alternateBounds" />
          </mxGeometry>
        </mxCell>
        <mxCell id="j4Oqm9sxDXDtLcWen2c1-290" value="" style="shape=partialRectangle;html=1;whiteSpace=wrap;connectable=0;strokeColor=inherit;overflow=hidden;fillColor=none;top=0;left=0;bottom=0;right=0;pointerEvents=1;fontFamily=Helvetica;fontSize=14;fontColor=#000000;" vertex="1" parent="j4Oqm9sxDXDtLcWen2c1-284">
          <mxGeometry x="300" width="60" height="44" as="geometry">
            <mxRectangle width="60" height="44" as="alternateBounds" />
          </mxGeometry>
        </mxCell>
        <mxCell id="j4Oqm9sxDXDtLcWen2c1-291" value="" style="shape=partialRectangle;html=1;whiteSpace=wrap;connectable=0;strokeColor=inherit;overflow=hidden;fillColor=none;top=0;left=0;bottom=0;right=0;pointerEvents=1;fontFamily=Helvetica;fontSize=14;fontColor=#000000;" vertex="1" parent="j4Oqm9sxDXDtLcWen2c1-284">
          <mxGeometry x="360" width="60" height="44" as="geometry">
            <mxRectangle width="60" height="44" as="alternateBounds" />
          </mxGeometry>
        </mxCell>
        <mxCell id="j4Oqm9sxDXDtLcWen2c1-292" value="" style="shape=partialRectangle;html=1;whiteSpace=wrap;connectable=0;strokeColor=inherit;overflow=hidden;fillColor=none;top=0;left=0;bottom=0;right=0;pointerEvents=1;fontFamily=Helvetica;fontSize=14;fontColor=#000000;" vertex="1" parent="j4Oqm9sxDXDtLcWen2c1-284">
          <mxGeometry x="420" width="60" height="44" as="geometry">
            <mxRectangle width="60" height="44" as="alternateBounds" />
          </mxGeometry>
        </mxCell>
        <mxCell id="j4Oqm9sxDXDtLcWen2c1-293" value="" style="shape=partialRectangle;html=1;whiteSpace=wrap;connectable=0;strokeColor=inherit;overflow=hidden;fillColor=none;top=0;left=0;bottom=0;right=0;pointerEvents=1;fontFamily=Helvetica;fontSize=14;fontColor=#000000;" vertex="1" parent="j4Oqm9sxDXDtLcWen2c1-284">
          <mxGeometry x="480" width="60" height="44" as="geometry">
            <mxRectangle width="60" height="44" as="alternateBounds" />
          </mxGeometry>
        </mxCell>
        <mxCell id="j4Oqm9sxDXDtLcWen2c1-294" value="" style="shape=partialRectangle;html=1;whiteSpace=wrap;connectable=0;strokeColor=inherit;overflow=hidden;fillColor=none;top=0;left=0;bottom=0;right=0;pointerEvents=1;fontFamily=Helvetica;fontSize=14;fontColor=#000000;" vertex="1" parent="j4Oqm9sxDXDtLcWen2c1-284">
          <mxGeometry x="540" width="60" height="44" as="geometry">
            <mxRectangle width="60" height="44" as="alternateBounds" />
          </mxGeometry>
        </mxCell>
        <mxCell id="j4Oqm9sxDXDtLcWen2c1-295" value="" style="shape=partialRectangle;html=1;whiteSpace=wrap;connectable=0;strokeColor=inherit;overflow=hidden;fillColor=none;top=0;left=0;bottom=0;right=0;pointerEvents=1;fontFamily=Helvetica;fontSize=14;fontColor=#000000;" vertex="1" parent="j4Oqm9sxDXDtLcWen2c1-284">
          <mxGeometry x="600" width="60" height="44" as="geometry">
            <mxRectangle width="60" height="44" as="alternateBounds" />
          </mxGeometry>
        </mxCell>
        <mxCell id="j4Oqm9sxDXDtLcWen2c1-296" value="" style="shape=partialRectangle;html=1;whiteSpace=wrap;connectable=0;strokeColor=inherit;overflow=hidden;fillColor=none;top=0;left=0;bottom=0;right=0;pointerEvents=1;fontFamily=Helvetica;fontSize=14;fontColor=#000000;" vertex="1" parent="j4Oqm9sxDXDtLcWen2c1-284">
          <mxGeometry x="660" width="60" height="44" as="geometry">
            <mxRectangle width="60" height="44" as="alternateBounds" />
          </mxGeometry>
        </mxCell>
        <mxCell id="j4Oqm9sxDXDtLcWen2c1-297" value="" style="shape=partialRectangle;html=1;whiteSpace=wrap;connectable=0;strokeColor=inherit;overflow=hidden;fillColor=none;top=0;left=0;bottom=0;right=0;pointerEvents=1;fontFamily=Helvetica;fontSize=14;fontColor=#000000;" vertex="1" parent="j4Oqm9sxDXDtLcWen2c1-284">
          <mxGeometry x="720" width="60" height="44" as="geometry">
            <mxRectangle width="60" height="44" as="alternateBounds" />
          </mxGeometry>
        </mxCell>
        <mxCell id="j4Oqm9sxDXDtLcWen2c1-536" style="shape=tableRow;horizontal=0;startSize=0;swimlaneHead=0;swimlaneBody=0;strokeColor=inherit;top=0;left=0;bottom=0;right=0;collapsible=0;dropTarget=0;fillColor=none;points=[[0,0.5],[1,0.5]];portConstraint=eastwest;fontFamily=Helvetica;fontSize=14;fontColor=#000000;" vertex="1" parent="j4Oqm9sxDXDtLcWen2c1-227">
          <mxGeometry y="484" width="779.75" height="40" as="geometry" />
        </mxCell>
        <mxCell id="j4Oqm9sxDXDtLcWen2c1-537" value="Plums" style="shape=partialRectangle;html=1;whiteSpace=wrap;connectable=0;strokeColor=inherit;overflow=hidden;fillColor=none;top=0;left=0;bottom=0;right=0;pointerEvents=1;fontFamily=Helvetica;fontSize=10;fontColor=#000000;" vertex="1" parent="j4Oqm9sxDXDtLcWen2c1-536">
          <mxGeometry width="60" height="40" as="geometry">
            <mxRectangle width="60" height="40" as="alternateBounds" />
          </mxGeometry>
        </mxCell>
        <mxCell id="j4Oqm9sxDXDtLcWen2c1-538" style="shape=partialRectangle;html=1;whiteSpace=wrap;connectable=0;strokeColor=inherit;overflow=hidden;fillColor=none;top=0;left=0;bottom=0;right=0;pointerEvents=1;fontFamily=Helvetica;fontSize=14;fontColor=#000000;" vertex="1" parent="j4Oqm9sxDXDtLcWen2c1-536">
          <mxGeometry x="60" width="60" height="40" as="geometry">
            <mxRectangle width="60" height="40" as="alternateBounds" />
          </mxGeometry>
        </mxCell>
        <mxCell id="j4Oqm9sxDXDtLcWen2c1-539" style="shape=partialRectangle;html=1;whiteSpace=wrap;connectable=0;strokeColor=inherit;overflow=hidden;fillColor=none;top=0;left=0;bottom=0;right=0;pointerEvents=1;fontFamily=Helvetica;fontSize=14;fontColor=#000000;" vertex="1" parent="j4Oqm9sxDXDtLcWen2c1-536">
          <mxGeometry x="120" width="60" height="40" as="geometry">
            <mxRectangle width="60" height="40" as="alternateBounds" />
          </mxGeometry>
        </mxCell>
        <mxCell id="j4Oqm9sxDXDtLcWen2c1-540" style="shape=partialRectangle;html=1;whiteSpace=wrap;connectable=0;strokeColor=inherit;overflow=hidden;fillColor=none;top=0;left=0;bottom=0;right=0;pointerEvents=1;fontFamily=Helvetica;fontSize=14;fontColor=#000000;" vertex="1" parent="j4Oqm9sxDXDtLcWen2c1-536">
          <mxGeometry x="180" width="57" height="40" as="geometry">
            <mxRectangle width="57" height="40" as="alternateBounds" />
          </mxGeometry>
        </mxCell>
        <mxCell id="j4Oqm9sxDXDtLcWen2c1-541" style="shape=partialRectangle;html=1;whiteSpace=wrap;connectable=0;strokeColor=inherit;overflow=hidden;fillColor=none;top=0;left=0;bottom=0;right=0;pointerEvents=1;fontFamily=Helvetica;fontSize=14;fontColor=#000000;" vertex="1" parent="j4Oqm9sxDXDtLcWen2c1-536">
          <mxGeometry x="237" width="63" height="40" as="geometry">
            <mxRectangle width="63" height="40" as="alternateBounds" />
          </mxGeometry>
        </mxCell>
        <mxCell id="j4Oqm9sxDXDtLcWen2c1-542" style="shape=partialRectangle;html=1;whiteSpace=wrap;connectable=0;strokeColor=inherit;overflow=hidden;fillColor=none;top=0;left=0;bottom=0;right=0;pointerEvents=1;fontFamily=Helvetica;fontSize=14;fontColor=#000000;" vertex="1" parent="j4Oqm9sxDXDtLcWen2c1-536">
          <mxGeometry x="300" width="60" height="40" as="geometry">
            <mxRectangle width="60" height="40" as="alternateBounds" />
          </mxGeometry>
        </mxCell>
        <mxCell id="j4Oqm9sxDXDtLcWen2c1-543" style="shape=partialRectangle;html=1;whiteSpace=wrap;connectable=0;strokeColor=inherit;overflow=hidden;fillColor=none;top=0;left=0;bottom=0;right=0;pointerEvents=1;fontFamily=Helvetica;fontSize=14;fontColor=#000000;" vertex="1" parent="j4Oqm9sxDXDtLcWen2c1-536">
          <mxGeometry x="360" width="60" height="40" as="geometry">
            <mxRectangle width="60" height="40" as="alternateBounds" />
          </mxGeometry>
        </mxCell>
        <mxCell id="j4Oqm9sxDXDtLcWen2c1-544" style="shape=partialRectangle;html=1;whiteSpace=wrap;connectable=0;strokeColor=inherit;overflow=hidden;fillColor=none;top=0;left=0;bottom=0;right=0;pointerEvents=1;fontFamily=Helvetica;fontSize=14;fontColor=#000000;" vertex="1" parent="j4Oqm9sxDXDtLcWen2c1-536">
          <mxGeometry x="420" width="60" height="40" as="geometry">
            <mxRectangle width="60" height="40" as="alternateBounds" />
          </mxGeometry>
        </mxCell>
        <mxCell id="j4Oqm9sxDXDtLcWen2c1-545" style="shape=partialRectangle;html=1;whiteSpace=wrap;connectable=0;strokeColor=inherit;overflow=hidden;fillColor=none;top=0;left=0;bottom=0;right=0;pointerEvents=1;fontFamily=Helvetica;fontSize=14;fontColor=#000000;" vertex="1" parent="j4Oqm9sxDXDtLcWen2c1-536">
          <mxGeometry x="480" width="60" height="40" as="geometry">
            <mxRectangle width="60" height="40" as="alternateBounds" />
          </mxGeometry>
        </mxCell>
        <mxCell id="j4Oqm9sxDXDtLcWen2c1-546" style="shape=partialRectangle;html=1;whiteSpace=wrap;connectable=0;strokeColor=inherit;overflow=hidden;fillColor=none;top=0;left=0;bottom=0;right=0;pointerEvents=1;fontFamily=Helvetica;fontSize=14;fontColor=#000000;" vertex="1" parent="j4Oqm9sxDXDtLcWen2c1-536">
          <mxGeometry x="540" width="60" height="40" as="geometry">
            <mxRectangle width="60" height="40" as="alternateBounds" />
          </mxGeometry>
        </mxCell>
        <mxCell id="j4Oqm9sxDXDtLcWen2c1-547" style="shape=partialRectangle;html=1;whiteSpace=wrap;connectable=0;strokeColor=inherit;overflow=hidden;fillColor=none;top=0;left=0;bottom=0;right=0;pointerEvents=1;fontFamily=Helvetica;fontSize=14;fontColor=#000000;" vertex="1" parent="j4Oqm9sxDXDtLcWen2c1-536">
          <mxGeometry x="600" width="60" height="40" as="geometry">
            <mxRectangle width="60" height="40" as="alternateBounds" />
          </mxGeometry>
        </mxCell>
        <mxCell id="j4Oqm9sxDXDtLcWen2c1-548" style="shape=partialRectangle;html=1;whiteSpace=wrap;connectable=0;strokeColor=inherit;overflow=hidden;fillColor=none;top=0;left=0;bottom=0;right=0;pointerEvents=1;fontFamily=Helvetica;fontSize=14;fontColor=#000000;" vertex="1" parent="j4Oqm9sxDXDtLcWen2c1-536">
          <mxGeometry x="660" width="60" height="40" as="geometry">
            <mxRectangle width="60" height="40" as="alternateBounds" />
          </mxGeometry>
        </mxCell>
        <mxCell id="j4Oqm9sxDXDtLcWen2c1-549" style="shape=partialRectangle;html=1;whiteSpace=wrap;connectable=0;strokeColor=inherit;overflow=hidden;fillColor=none;top=0;left=0;bottom=0;right=0;pointerEvents=1;fontFamily=Helvetica;fontSize=14;fontColor=#000000;" vertex="1" parent="j4Oqm9sxDXDtLcWen2c1-536">
          <mxGeometry x="720" width="60" height="40" as="geometry">
            <mxRectangle width="60" height="40" as="alternateBounds" />
          </mxGeometry>
        </mxCell>
        <mxCell id="j4Oqm9sxDXDtLcWen2c1-522" style="shape=tableRow;horizontal=0;startSize=0;swimlaneHead=0;swimlaneBody=0;strokeColor=inherit;top=0;left=0;bottom=0;right=0;collapsible=0;dropTarget=0;fillColor=none;points=[[0,0.5],[1,0.5]];portConstraint=eastwest;fontFamily=Helvetica;fontSize=14;fontColor=#000000;" vertex="1" parent="j4Oqm9sxDXDtLcWen2c1-227">
          <mxGeometry y="524" width="779.75" height="40" as="geometry" />
        </mxCell>
        <mxCell id="j4Oqm9sxDXDtLcWen2c1-523" value="Raspberries" style="shape=partialRectangle;html=1;whiteSpace=wrap;connectable=0;strokeColor=inherit;overflow=hidden;fillColor=none;top=0;left=0;bottom=0;right=0;pointerEvents=1;fontFamily=Helvetica;fontSize=10;fontColor=#000000;" vertex="1" parent="j4Oqm9sxDXDtLcWen2c1-522">
          <mxGeometry width="60" height="40" as="geometry">
            <mxRectangle width="60" height="40" as="alternateBounds" />
          </mxGeometry>
        </mxCell>
        <mxCell id="j4Oqm9sxDXDtLcWen2c1-524" style="shape=partialRectangle;html=1;whiteSpace=wrap;connectable=0;strokeColor=inherit;overflow=hidden;fillColor=none;top=0;left=0;bottom=0;right=0;pointerEvents=1;fontFamily=Helvetica;fontSize=14;fontColor=#000000;" vertex="1" parent="j4Oqm9sxDXDtLcWen2c1-522">
          <mxGeometry x="60" width="60" height="40" as="geometry">
            <mxRectangle width="60" height="40" as="alternateBounds" />
          </mxGeometry>
        </mxCell>
        <mxCell id="j4Oqm9sxDXDtLcWen2c1-525" style="shape=partialRectangle;html=1;whiteSpace=wrap;connectable=0;strokeColor=inherit;overflow=hidden;fillColor=none;top=0;left=0;bottom=0;right=0;pointerEvents=1;fontFamily=Helvetica;fontSize=14;fontColor=#000000;" vertex="1" parent="j4Oqm9sxDXDtLcWen2c1-522">
          <mxGeometry x="120" width="60" height="40" as="geometry">
            <mxRectangle width="60" height="40" as="alternateBounds" />
          </mxGeometry>
        </mxCell>
        <mxCell id="j4Oqm9sxDXDtLcWen2c1-526" style="shape=partialRectangle;html=1;whiteSpace=wrap;connectable=0;strokeColor=inherit;overflow=hidden;fillColor=none;top=0;left=0;bottom=0;right=0;pointerEvents=1;fontFamily=Helvetica;fontSize=14;fontColor=#000000;" vertex="1" parent="j4Oqm9sxDXDtLcWen2c1-522">
          <mxGeometry x="180" width="57" height="40" as="geometry">
            <mxRectangle width="57" height="40" as="alternateBounds" />
          </mxGeometry>
        </mxCell>
        <mxCell id="j4Oqm9sxDXDtLcWen2c1-527" style="shape=partialRectangle;html=1;whiteSpace=wrap;connectable=0;strokeColor=inherit;overflow=hidden;fillColor=none;top=0;left=0;bottom=0;right=0;pointerEvents=1;fontFamily=Helvetica;fontSize=14;fontColor=#000000;" vertex="1" parent="j4Oqm9sxDXDtLcWen2c1-522">
          <mxGeometry x="237" width="63" height="40" as="geometry">
            <mxRectangle width="63" height="40" as="alternateBounds" />
          </mxGeometry>
        </mxCell>
        <mxCell id="j4Oqm9sxDXDtLcWen2c1-528" style="shape=partialRectangle;html=1;whiteSpace=wrap;connectable=0;strokeColor=inherit;overflow=hidden;fillColor=none;top=0;left=0;bottom=0;right=0;pointerEvents=1;fontFamily=Helvetica;fontSize=14;fontColor=#000000;" vertex="1" parent="j4Oqm9sxDXDtLcWen2c1-522">
          <mxGeometry x="300" width="60" height="40" as="geometry">
            <mxRectangle width="60" height="40" as="alternateBounds" />
          </mxGeometry>
        </mxCell>
        <mxCell id="j4Oqm9sxDXDtLcWen2c1-529" style="shape=partialRectangle;html=1;whiteSpace=wrap;connectable=0;strokeColor=inherit;overflow=hidden;fillColor=none;top=0;left=0;bottom=0;right=0;pointerEvents=1;fontFamily=Helvetica;fontSize=14;fontColor=#000000;" vertex="1" parent="j4Oqm9sxDXDtLcWen2c1-522">
          <mxGeometry x="360" width="60" height="40" as="geometry">
            <mxRectangle width="60" height="40" as="alternateBounds" />
          </mxGeometry>
        </mxCell>
        <mxCell id="j4Oqm9sxDXDtLcWen2c1-530" style="shape=partialRectangle;html=1;whiteSpace=wrap;connectable=0;strokeColor=inherit;overflow=hidden;fillColor=none;top=0;left=0;bottom=0;right=0;pointerEvents=1;fontFamily=Helvetica;fontSize=14;fontColor=#000000;" vertex="1" parent="j4Oqm9sxDXDtLcWen2c1-522">
          <mxGeometry x="420" width="60" height="40" as="geometry">
            <mxRectangle width="60" height="40" as="alternateBounds" />
          </mxGeometry>
        </mxCell>
        <mxCell id="j4Oqm9sxDXDtLcWen2c1-531" style="shape=partialRectangle;html=1;whiteSpace=wrap;connectable=0;strokeColor=inherit;overflow=hidden;fillColor=none;top=0;left=0;bottom=0;right=0;pointerEvents=1;fontFamily=Helvetica;fontSize=14;fontColor=#000000;" vertex="1" parent="j4Oqm9sxDXDtLcWen2c1-522">
          <mxGeometry x="480" width="60" height="40" as="geometry">
            <mxRectangle width="60" height="40" as="alternateBounds" />
          </mxGeometry>
        </mxCell>
        <mxCell id="j4Oqm9sxDXDtLcWen2c1-532" style="shape=partialRectangle;html=1;whiteSpace=wrap;connectable=0;strokeColor=inherit;overflow=hidden;fillColor=none;top=0;left=0;bottom=0;right=0;pointerEvents=1;fontFamily=Helvetica;fontSize=14;fontColor=#000000;" vertex="1" parent="j4Oqm9sxDXDtLcWen2c1-522">
          <mxGeometry x="540" width="60" height="40" as="geometry">
            <mxRectangle width="60" height="40" as="alternateBounds" />
          </mxGeometry>
        </mxCell>
        <mxCell id="j4Oqm9sxDXDtLcWen2c1-533" style="shape=partialRectangle;html=1;whiteSpace=wrap;connectable=0;strokeColor=inherit;overflow=hidden;fillColor=none;top=0;left=0;bottom=0;right=0;pointerEvents=1;fontFamily=Helvetica;fontSize=14;fontColor=#000000;" vertex="1" parent="j4Oqm9sxDXDtLcWen2c1-522">
          <mxGeometry x="600" width="60" height="40" as="geometry">
            <mxRectangle width="60" height="40" as="alternateBounds" />
          </mxGeometry>
        </mxCell>
        <mxCell id="j4Oqm9sxDXDtLcWen2c1-534" style="shape=partialRectangle;html=1;whiteSpace=wrap;connectable=0;strokeColor=inherit;overflow=hidden;fillColor=none;top=0;left=0;bottom=0;right=0;pointerEvents=1;fontFamily=Helvetica;fontSize=14;fontColor=#000000;" vertex="1" parent="j4Oqm9sxDXDtLcWen2c1-522">
          <mxGeometry x="660" width="60" height="40" as="geometry">
            <mxRectangle width="60" height="40" as="alternateBounds" />
          </mxGeometry>
        </mxCell>
        <mxCell id="j4Oqm9sxDXDtLcWen2c1-535" style="shape=partialRectangle;html=1;whiteSpace=wrap;connectable=0;strokeColor=inherit;overflow=hidden;fillColor=none;top=0;left=0;bottom=0;right=0;pointerEvents=1;fontFamily=Helvetica;fontSize=14;fontColor=#000000;" vertex="1" parent="j4Oqm9sxDXDtLcWen2c1-522">
          <mxGeometry x="720" width="60" height="40" as="geometry">
            <mxRectangle width="60" height="40" as="alternateBounds" />
          </mxGeometry>
        </mxCell>
        <mxCell id="j4Oqm9sxDXDtLcWen2c1-550" style="shape=tableRow;horizontal=0;startSize=0;swimlaneHead=0;swimlaneBody=0;strokeColor=inherit;top=0;left=0;bottom=0;right=0;collapsible=0;dropTarget=0;fillColor=none;points=[[0,0.5],[1,0.5]];portConstraint=eastwest;fontFamily=Helvetica;fontSize=14;fontColor=#000000;" vertex="1" parent="j4Oqm9sxDXDtLcWen2c1-227">
          <mxGeometry y="564" width="779.75" height="40" as="geometry" />
        </mxCell>
        <mxCell id="j4Oqm9sxDXDtLcWen2c1-551" value="Rhubarb" style="shape=partialRectangle;html=1;whiteSpace=wrap;connectable=0;strokeColor=inherit;overflow=hidden;fillColor=none;top=0;left=0;bottom=0;right=0;pointerEvents=1;fontFamily=Helvetica;fontSize=10;fontColor=#000000;" vertex="1" parent="j4Oqm9sxDXDtLcWen2c1-550">
          <mxGeometry width="60" height="40" as="geometry">
            <mxRectangle width="60" height="40" as="alternateBounds" />
          </mxGeometry>
        </mxCell>
        <mxCell id="j4Oqm9sxDXDtLcWen2c1-552" style="shape=partialRectangle;html=1;whiteSpace=wrap;connectable=0;strokeColor=inherit;overflow=hidden;fillColor=none;top=0;left=0;bottom=0;right=0;pointerEvents=1;fontFamily=Helvetica;fontSize=14;fontColor=#000000;" vertex="1" parent="j4Oqm9sxDXDtLcWen2c1-550">
          <mxGeometry x="60" width="60" height="40" as="geometry">
            <mxRectangle width="60" height="40" as="alternateBounds" />
          </mxGeometry>
        </mxCell>
        <mxCell id="j4Oqm9sxDXDtLcWen2c1-553" style="shape=partialRectangle;html=1;whiteSpace=wrap;connectable=0;strokeColor=inherit;overflow=hidden;fillColor=none;top=0;left=0;bottom=0;right=0;pointerEvents=1;fontFamily=Helvetica;fontSize=14;fontColor=#000000;" vertex="1" parent="j4Oqm9sxDXDtLcWen2c1-550">
          <mxGeometry x="120" width="60" height="40" as="geometry">
            <mxRectangle width="60" height="40" as="alternateBounds" />
          </mxGeometry>
        </mxCell>
        <mxCell id="j4Oqm9sxDXDtLcWen2c1-554" style="shape=partialRectangle;html=1;whiteSpace=wrap;connectable=0;strokeColor=inherit;overflow=hidden;fillColor=none;top=0;left=0;bottom=0;right=0;pointerEvents=1;fontFamily=Helvetica;fontSize=14;fontColor=#000000;" vertex="1" parent="j4Oqm9sxDXDtLcWen2c1-550">
          <mxGeometry x="180" width="57" height="40" as="geometry">
            <mxRectangle width="57" height="40" as="alternateBounds" />
          </mxGeometry>
        </mxCell>
        <mxCell id="j4Oqm9sxDXDtLcWen2c1-555" style="shape=partialRectangle;html=1;whiteSpace=wrap;connectable=0;strokeColor=inherit;overflow=hidden;fillColor=none;top=0;left=0;bottom=0;right=0;pointerEvents=1;fontFamily=Helvetica;fontSize=14;fontColor=#000000;" vertex="1" parent="j4Oqm9sxDXDtLcWen2c1-550">
          <mxGeometry x="237" width="63" height="40" as="geometry">
            <mxRectangle width="63" height="40" as="alternateBounds" />
          </mxGeometry>
        </mxCell>
        <mxCell id="j4Oqm9sxDXDtLcWen2c1-556" style="shape=partialRectangle;html=1;whiteSpace=wrap;connectable=0;strokeColor=inherit;overflow=hidden;fillColor=none;top=0;left=0;bottom=0;right=0;pointerEvents=1;fontFamily=Helvetica;fontSize=14;fontColor=#000000;" vertex="1" parent="j4Oqm9sxDXDtLcWen2c1-550">
          <mxGeometry x="300" width="60" height="40" as="geometry">
            <mxRectangle width="60" height="40" as="alternateBounds" />
          </mxGeometry>
        </mxCell>
        <mxCell id="j4Oqm9sxDXDtLcWen2c1-557" style="shape=partialRectangle;html=1;whiteSpace=wrap;connectable=0;strokeColor=inherit;overflow=hidden;fillColor=none;top=0;left=0;bottom=0;right=0;pointerEvents=1;fontFamily=Helvetica;fontSize=14;fontColor=#000000;" vertex="1" parent="j4Oqm9sxDXDtLcWen2c1-550">
          <mxGeometry x="360" width="60" height="40" as="geometry">
            <mxRectangle width="60" height="40" as="alternateBounds" />
          </mxGeometry>
        </mxCell>
        <mxCell id="j4Oqm9sxDXDtLcWen2c1-558" style="shape=partialRectangle;html=1;whiteSpace=wrap;connectable=0;strokeColor=inherit;overflow=hidden;fillColor=none;top=0;left=0;bottom=0;right=0;pointerEvents=1;fontFamily=Helvetica;fontSize=14;fontColor=#000000;" vertex="1" parent="j4Oqm9sxDXDtLcWen2c1-550">
          <mxGeometry x="420" width="60" height="40" as="geometry">
            <mxRectangle width="60" height="40" as="alternateBounds" />
          </mxGeometry>
        </mxCell>
        <mxCell id="j4Oqm9sxDXDtLcWen2c1-559" style="shape=partialRectangle;html=1;whiteSpace=wrap;connectable=0;strokeColor=inherit;overflow=hidden;fillColor=none;top=0;left=0;bottom=0;right=0;pointerEvents=1;fontFamily=Helvetica;fontSize=14;fontColor=#000000;" vertex="1" parent="j4Oqm9sxDXDtLcWen2c1-550">
          <mxGeometry x="480" width="60" height="40" as="geometry">
            <mxRectangle width="60" height="40" as="alternateBounds" />
          </mxGeometry>
        </mxCell>
        <mxCell id="j4Oqm9sxDXDtLcWen2c1-560" style="shape=partialRectangle;html=1;whiteSpace=wrap;connectable=0;strokeColor=inherit;overflow=hidden;fillColor=none;top=0;left=0;bottom=0;right=0;pointerEvents=1;fontFamily=Helvetica;fontSize=14;fontColor=#000000;" vertex="1" parent="j4Oqm9sxDXDtLcWen2c1-550">
          <mxGeometry x="540" width="60" height="40" as="geometry">
            <mxRectangle width="60" height="40" as="alternateBounds" />
          </mxGeometry>
        </mxCell>
        <mxCell id="j4Oqm9sxDXDtLcWen2c1-561" style="shape=partialRectangle;html=1;whiteSpace=wrap;connectable=0;strokeColor=inherit;overflow=hidden;fillColor=none;top=0;left=0;bottom=0;right=0;pointerEvents=1;fontFamily=Helvetica;fontSize=14;fontColor=#000000;" vertex="1" parent="j4Oqm9sxDXDtLcWen2c1-550">
          <mxGeometry x="600" width="60" height="40" as="geometry">
            <mxRectangle width="60" height="40" as="alternateBounds" />
          </mxGeometry>
        </mxCell>
        <mxCell id="j4Oqm9sxDXDtLcWen2c1-562" style="shape=partialRectangle;html=1;whiteSpace=wrap;connectable=0;strokeColor=inherit;overflow=hidden;fillColor=none;top=0;left=0;bottom=0;right=0;pointerEvents=1;fontFamily=Helvetica;fontSize=14;fontColor=#000000;" vertex="1" parent="j4Oqm9sxDXDtLcWen2c1-550">
          <mxGeometry x="660" width="60" height="40" as="geometry">
            <mxRectangle width="60" height="40" as="alternateBounds" />
          </mxGeometry>
        </mxCell>
        <mxCell id="j4Oqm9sxDXDtLcWen2c1-563" style="shape=partialRectangle;html=1;whiteSpace=wrap;connectable=0;strokeColor=inherit;overflow=hidden;fillColor=none;top=0;left=0;bottom=0;right=0;pointerEvents=1;fontFamily=Helvetica;fontSize=14;fontColor=#000000;" vertex="1" parent="j4Oqm9sxDXDtLcWen2c1-550">
          <mxGeometry x="720" width="60" height="40" as="geometry">
            <mxRectangle width="60" height="40" as="alternateBounds" />
          </mxGeometry>
        </mxCell>
        <mxCell id="j4Oqm9sxDXDtLcWen2c1-298" value="" style="shape=tableRow;horizontal=0;startSize=0;swimlaneHead=0;swimlaneBody=0;strokeColor=inherit;top=0;left=0;bottom=0;right=0;collapsible=0;dropTarget=0;fillColor=none;points=[[0,0.5],[1,0.5]];portConstraint=eastwest;fontFamily=Helvetica;fontSize=14;fontColor=#000000;" vertex="1" parent="j4Oqm9sxDXDtLcWen2c1-227">
          <mxGeometry y="604" width="779.75" height="40" as="geometry" />
        </mxCell>
        <mxCell id="j4Oqm9sxDXDtLcWen2c1-299" value="Strawberries" style="shape=partialRectangle;html=1;whiteSpace=wrap;connectable=0;strokeColor=inherit;overflow=hidden;fillColor=none;top=0;left=0;bottom=0;right=0;pointerEvents=1;fontFamily=Helvetica;fontSize=10;fontColor=#000000;" vertex="1" parent="j4Oqm9sxDXDtLcWen2c1-298">
          <mxGeometry width="60" height="40" as="geometry">
            <mxRectangle width="60" height="40" as="alternateBounds" />
          </mxGeometry>
        </mxCell>
        <mxCell id="j4Oqm9sxDXDtLcWen2c1-300" value="" style="shape=partialRectangle;html=1;whiteSpace=wrap;connectable=0;strokeColor=inherit;overflow=hidden;fillColor=none;top=0;left=0;bottom=0;right=0;pointerEvents=1;fontFamily=Helvetica;fontSize=14;fontColor=#000000;" vertex="1" parent="j4Oqm9sxDXDtLcWen2c1-298">
          <mxGeometry x="60" width="60" height="40" as="geometry">
            <mxRectangle width="60" height="40" as="alternateBounds" />
          </mxGeometry>
        </mxCell>
        <mxCell id="j4Oqm9sxDXDtLcWen2c1-301" value="" style="shape=partialRectangle;html=1;whiteSpace=wrap;connectable=0;strokeColor=inherit;overflow=hidden;fillColor=none;top=0;left=0;bottom=0;right=0;pointerEvents=1;fontFamily=Helvetica;fontSize=14;fontColor=#000000;" vertex="1" parent="j4Oqm9sxDXDtLcWen2c1-298">
          <mxGeometry x="120" width="60" height="40" as="geometry">
            <mxRectangle width="60" height="40" as="alternateBounds" />
          </mxGeometry>
        </mxCell>
        <mxCell id="j4Oqm9sxDXDtLcWen2c1-302" value="" style="shape=partialRectangle;html=1;whiteSpace=wrap;connectable=0;strokeColor=inherit;overflow=hidden;fillColor=none;top=0;left=0;bottom=0;right=0;pointerEvents=1;fontFamily=Helvetica;fontSize=14;fontColor=#000000;" vertex="1" parent="j4Oqm9sxDXDtLcWen2c1-298">
          <mxGeometry x="180" width="57" height="40" as="geometry">
            <mxRectangle width="57" height="40" as="alternateBounds" />
          </mxGeometry>
        </mxCell>
        <mxCell id="j4Oqm9sxDXDtLcWen2c1-303" value="" style="shape=partialRectangle;html=1;whiteSpace=wrap;connectable=0;strokeColor=inherit;overflow=hidden;fillColor=none;top=0;left=0;bottom=0;right=0;pointerEvents=1;fontFamily=Helvetica;fontSize=14;fontColor=#000000;" vertex="1" parent="j4Oqm9sxDXDtLcWen2c1-298">
          <mxGeometry x="237" width="63" height="40" as="geometry">
            <mxRectangle width="63" height="40" as="alternateBounds" />
          </mxGeometry>
        </mxCell>
        <mxCell id="j4Oqm9sxDXDtLcWen2c1-304" value="" style="shape=partialRectangle;html=1;whiteSpace=wrap;connectable=0;strokeColor=inherit;overflow=hidden;fillColor=none;top=0;left=0;bottom=0;right=0;pointerEvents=1;fontFamily=Helvetica;fontSize=14;fontColor=#000000;" vertex="1" parent="j4Oqm9sxDXDtLcWen2c1-298">
          <mxGeometry x="300" width="60" height="40" as="geometry">
            <mxRectangle width="60" height="40" as="alternateBounds" />
          </mxGeometry>
        </mxCell>
        <mxCell id="j4Oqm9sxDXDtLcWen2c1-305" value="" style="shape=partialRectangle;html=1;whiteSpace=wrap;connectable=0;strokeColor=inherit;overflow=hidden;fillColor=none;top=0;left=0;bottom=0;right=0;pointerEvents=1;fontFamily=Helvetica;fontSize=14;fontColor=#000000;" vertex="1" parent="j4Oqm9sxDXDtLcWen2c1-298">
          <mxGeometry x="360" width="60" height="40" as="geometry">
            <mxRectangle width="60" height="40" as="alternateBounds" />
          </mxGeometry>
        </mxCell>
        <mxCell id="j4Oqm9sxDXDtLcWen2c1-306" value="" style="shape=partialRectangle;html=1;whiteSpace=wrap;connectable=0;strokeColor=inherit;overflow=hidden;fillColor=none;top=0;left=0;bottom=0;right=0;pointerEvents=1;fontFamily=Helvetica;fontSize=14;fontColor=#000000;" vertex="1" parent="j4Oqm9sxDXDtLcWen2c1-298">
          <mxGeometry x="420" width="60" height="40" as="geometry">
            <mxRectangle width="60" height="40" as="alternateBounds" />
          </mxGeometry>
        </mxCell>
        <mxCell id="j4Oqm9sxDXDtLcWen2c1-307" value="" style="shape=partialRectangle;html=1;whiteSpace=wrap;connectable=0;strokeColor=inherit;overflow=hidden;fillColor=none;top=0;left=0;bottom=0;right=0;pointerEvents=1;fontFamily=Helvetica;fontSize=14;fontColor=#000000;" vertex="1" parent="j4Oqm9sxDXDtLcWen2c1-298">
          <mxGeometry x="480" width="60" height="40" as="geometry">
            <mxRectangle width="60" height="40" as="alternateBounds" />
          </mxGeometry>
        </mxCell>
        <mxCell id="j4Oqm9sxDXDtLcWen2c1-308" value="" style="shape=partialRectangle;html=1;whiteSpace=wrap;connectable=0;strokeColor=inherit;overflow=hidden;fillColor=none;top=0;left=0;bottom=0;right=0;pointerEvents=1;fontFamily=Helvetica;fontSize=14;fontColor=#000000;" vertex="1" parent="j4Oqm9sxDXDtLcWen2c1-298">
          <mxGeometry x="540" width="60" height="40" as="geometry">
            <mxRectangle width="60" height="40" as="alternateBounds" />
          </mxGeometry>
        </mxCell>
        <mxCell id="j4Oqm9sxDXDtLcWen2c1-309" value="" style="shape=partialRectangle;html=1;whiteSpace=wrap;connectable=0;strokeColor=inherit;overflow=hidden;fillColor=none;top=0;left=0;bottom=0;right=0;pointerEvents=1;fontFamily=Helvetica;fontSize=14;fontColor=#000000;" vertex="1" parent="j4Oqm9sxDXDtLcWen2c1-298">
          <mxGeometry x="600" width="60" height="40" as="geometry">
            <mxRectangle width="60" height="40" as="alternateBounds" />
          </mxGeometry>
        </mxCell>
        <mxCell id="j4Oqm9sxDXDtLcWen2c1-310" value="" style="shape=partialRectangle;html=1;whiteSpace=wrap;connectable=0;strokeColor=inherit;overflow=hidden;fillColor=none;top=0;left=0;bottom=0;right=0;pointerEvents=1;fontFamily=Helvetica;fontSize=14;fontColor=#000000;" vertex="1" parent="j4Oqm9sxDXDtLcWen2c1-298">
          <mxGeometry x="660" width="60" height="40" as="geometry">
            <mxRectangle width="60" height="40" as="alternateBounds" />
          </mxGeometry>
        </mxCell>
        <mxCell id="j4Oqm9sxDXDtLcWen2c1-311" value="" style="shape=partialRectangle;html=1;whiteSpace=wrap;connectable=0;strokeColor=inherit;overflow=hidden;fillColor=none;top=0;left=0;bottom=0;right=0;pointerEvents=1;fontFamily=Helvetica;fontSize=14;fontColor=#000000;" vertex="1" parent="j4Oqm9sxDXDtLcWen2c1-298">
          <mxGeometry x="720" width="60" height="40" as="geometry">
            <mxRectangle width="60" height="40" as="alternateBounds" />
          </mxGeometry>
        </mxCell>
        <mxCell id="j4Oqm9sxDXDtLcWen2c1-649" value="" style="shape=image;html=1;verticalAlign=top;verticalLabelPosition=bottom;labelBackgroundColor=#ffffff;imageAspect=0;aspect=fixed;image=https://cdn4.iconfinder.com/data/icons/office-time/512/21-128.png;fontSize=16;rotation=0;" vertex="1" parent="1">
          <mxGeometry x="584" y="-56" width="28" height="28" as="geometry" />
        </mxCell>
        <mxCell id="j4Oqm9sxDXDtLcWen2c1-650" value="" style="shape=image;html=1;verticalAlign=top;verticalLabelPosition=bottom;labelBackgroundColor=#ffffff;imageAspect=0;aspect=fixed;image=https://cdn4.iconfinder.com/data/icons/office-time/512/21-128.png;fontSize=16;rotation=0;" vertex="1" parent="1">
          <mxGeometry x="491" y="348" width="28" height="28" as="geometry" />
        </mxCell>
        <mxCell id="j4Oqm9sxDXDtLcWen2c1-651" value="" style="shape=image;html=1;verticalAlign=top;verticalLabelPosition=bottom;labelBackgroundColor=#ffffff;imageAspect=0;aspect=fixed;image=https://cdn4.iconfinder.com/data/icons/office-time/512/21-128.png;fontSize=16;rotation=0;" vertex="1" parent="1">
          <mxGeometry x="561" y="64" width="28" height="28" as="geometry" />
        </mxCell>
        <mxCell id="j4Oqm9sxDXDtLcWen2c1-654" value="" style="shape=image;html=1;verticalAlign=top;verticalLabelPosition=bottom;labelBackgroundColor=#ffffff;imageAspect=0;aspect=fixed;image=https://cdn4.iconfinder.com/data/icons/office-time/512/21-128.png;fontSize=16;rotation=0;" vertex="1" parent="1">
          <mxGeometry x="791" y="-96" width="28" height="28" as="geometry" />
        </mxCell>
        <mxCell id="j4Oqm9sxDXDtLcWen2c1-655" value="2+ year&lt;br style=&quot;font-size: 8px;&quot;&gt;old branches" style="shape=image;html=1;verticalAlign=middle;verticalLabelPosition=middle;labelBackgroundColor=#ffffff;imageAspect=0;aspect=fixed;image=https://cdn4.iconfinder.com/data/icons/office-time/512/21-128.png;fontSize=8;rotation=0;labelPosition=right;align=left;" vertex="1" parent="1">
          <mxGeometry x="184" y="104" width="28" height="28" as="geometry" />
        </mxCell>
        <mxCell id="j4Oqm9sxDXDtLcWen2c1-656" value="" style="shape=image;html=1;verticalAlign=top;verticalLabelPosition=bottom;labelBackgroundColor=#ffffff;imageAspect=0;aspect=fixed;image=https://cdn4.iconfinder.com/data/icons/office-time/512/21-128.png;fontSize=16;rotation=0;" vertex="1" parent="1">
          <mxGeometry x="808" y="304" width="28" height="28" as="geometry" />
        </mxCell>
        <mxCell id="j4Oqm9sxDXDtLcWen2c1-658" value="autumn&lt;br&gt;fruiting" style="shape=image;html=1;verticalAlign=middle;verticalLabelPosition=middle;labelBackgroundColor=#ffffff;imageAspect=0;aspect=fixed;image=https://cdn4.iconfinder.com/data/icons/office-time/512/21-128.png;fontSize=9;rotation=0;labelPosition=right;align=left;" vertex="1" parent="1">
          <mxGeometry x="176" y="388" width="28" height="28" as="geometry" />
        </mxCell>
        <mxCell id="j4Oqm9sxDXDtLcWen2c1-661" value="" style="shape=image;html=1;verticalAlign=top;verticalLabelPosition=bottom;labelBackgroundColor=#ffffff;imageAspect=0;aspect=fixed;image=https://cdn4.iconfinder.com/data/icons/office-time/512/21-128.png;fontSize=16;rotation=0;" vertex="1" parent="1">
          <mxGeometry x="755" y="184" width="28" height="28" as="geometry" />
        </mxCell>
        <mxCell id="j4Oqm9sxDXDtLcWen2c1-664" value="fruited&lt;br&gt;canes" style="shape=image;html=1;verticalAlign=middle;verticalLabelPosition=middle;labelBackgroundColor=#ffffff;imageAspect=0;aspect=fixed;image=https://cdn4.iconfinder.com/data/icons/office-time/512/21-128.png;fontSize=8;rotation=0;labelPosition=right;align=left;" vertex="1" parent="1">
          <mxGeometry x="614" y="-16" width="28" height="28" as="geometry" />
        </mxCell>
        <mxCell id="j4Oqm9sxDXDtLcWen2c1-665" style="edgeStyle=none;curved=1;rounded=0;orthogonalLoop=1;jettySize=auto;html=1;exitX=0;exitY=0.5;exitDx=0;exitDy=0;fontSize=12;startSize=8;endSize=8;" edge="1" parent="1" source="j4Oqm9sxDXDtLcWen2c1-658" target="j4Oqm9sxDXDtLcWen2c1-658">
          <mxGeometry relative="1" as="geometry" />
        </mxCell>
        <mxCell id="j4Oqm9sxDXDtLcWen2c1-666" value="spring&lt;br&gt;fruited&lt;br&gt;canes" style="shape=image;html=1;verticalAlign=middle;verticalLabelPosition=middle;labelBackgroundColor=#ffffff;imageAspect=0;aspect=fixed;image=https://cdn4.iconfinder.com/data/icons/office-time/512/21-128.png;fontSize=8;rotation=0;labelPosition=right;align=left;" vertex="1" parent="1">
          <mxGeometry x="670" y="388" width="29" height="29" as="geometry" />
        </mxCell>
        <mxCell id="j4Oqm9sxDXDtLcWen2c1-667" value="" style="shape=image;html=1;verticalAlign=top;verticalLabelPosition=bottom;labelBackgroundColor=#ffffff;imageAspect=0;aspect=fixed;image=https://cdn4.iconfinder.com/data/icons/office-time/512/21-128.png;fontSize=16;rotation=0;" vertex="1" parent="1">
          <mxGeometry x="207" y="24" width="28" height="28" as="geometry" />
        </mxCell>
        <mxCell id="j4Oqm9sxDXDtLcWen2c1-670" value="thin&lt;br&gt;new&lt;br&gt;growth" style="shape=image;html=1;verticalAlign=middle;verticalLabelPosition=middle;labelBackgroundColor=#ffffff;imageAspect=0;aspect=fixed;image=https://cdn4.iconfinder.com/data/icons/office-time/512/21-128.png;fontSize=8;rotation=0;labelPosition=right;align=left;" vertex="1" parent="1">
          <mxGeometry x="410" y="144" width="28" height="28" as="geometry" />
        </mxCell>
        <mxCell id="j4Oqm9sxDXDtLcWen2c1-671" value="thin&lt;br&gt;new&lt;br&gt;growth" style="shape=image;html=1;verticalAlign=middle;verticalLabelPosition=middle;labelBackgroundColor=#ffffff;imageAspect=0;aspect=fixed;image=https://cdn4.iconfinder.com/data/icons/office-time/512/21-128.png;fontSize=8;rotation=0;labelPosition=right;align=left;" vertex="1" parent="1">
          <mxGeometry x="377" y="184" width="28" height="28" as="geometry" />
        </mxCell>
        <mxCell id="j4Oqm9sxDXDtLcWen2c1-672" value="fruited&lt;br&gt;branches" style="shape=image;html=1;verticalAlign=middle;verticalLabelPosition=middle;labelBackgroundColor=#ffffff;imageAspect=0;aspect=fixed;image=https://cdn4.iconfinder.com/data/icons/office-time/512/21-128.png;fontSize=8;rotation=0;labelPosition=right;align=left;" vertex="1" parent="1">
          <mxGeometry x="634" y="224" width="28" height="28" as="geometry" />
        </mxCell>
        <mxCell id="j4Oqm9sxDXDtLcWen2c1-673" value="fruited&lt;br&gt;branches" style="shape=image;html=1;verticalAlign=middle;verticalLabelPosition=middle;labelBackgroundColor=#ffffff;imageAspect=0;aspect=fixed;image=https://cdn4.iconfinder.com/data/icons/office-time/512/21-128.png;fontSize=8;rotation=0;labelPosition=right;align=left;" vertex="1" parent="1">
          <mxGeometry x="634" y="264" width="28" height="28" as="geometry" />
        </mxCell>
        <mxCell id="j4Oqm9sxDXDtLcWen2c1-677" value="" style="shape=image;html=1;verticalAlign=top;verticalLabelPosition=bottom;labelBackgroundColor=#ffffff;imageAspect=0;aspect=fixed;image=https://cdn3.iconfinder.com/data/icons/winter-flat-8/32/Winter_season_cold_snow_snowflake_Christmas_frost-128.png;fontSize=16;" vertex="1" parent="1">
          <mxGeometry x="777" y="143" width="26" height="26" as="geometry" />
        </mxCell>
        <mxCell id="j4Oqm9sxDXDtLcWen2c1-678" value="" style="shape=image;html=1;verticalAlign=top;verticalLabelPosition=bottom;labelBackgroundColor=#ffffff;imageAspect=0;aspect=fixed;image=https://cdn3.iconfinder.com/data/icons/winter-flat-8/32/Winter_season_cold_snow_snowflake_Christmas_frost-128.png;fontSize=16;" vertex="1" parent="1">
          <mxGeometry x="777" y="261" width="26" height="26" as="geometry" />
        </mxCell>
        <mxCell id="j4Oqm9sxDXDtLcWen2c1-679" value="" style="shape=image;html=1;verticalAlign=top;verticalLabelPosition=bottom;labelBackgroundColor=#ffffff;imageAspect=0;aspect=fixed;image=https://cdn3.iconfinder.com/data/icons/winter-flat-8/32/Winter_season_cold_snow_snowflake_Christmas_frost-128.png;fontSize=16;" vertex="1" parent="1">
          <mxGeometry x="777" y="221" width="26" height="26" as="geometry" />
        </mxCell>
        <mxCell id="j4Oqm9sxDXDtLcWen2c1-680" value="" style="shape=image;html=1;verticalAlign=top;verticalLabelPosition=bottom;labelBackgroundColor=#ffffff;imageAspect=0;aspect=fixed;image=https://cdn3.iconfinder.com/data/icons/winter-flat-8/32/Winter_season_cold_snow_snowflake_Christmas_frost-128.png;fontSize=16;" vertex="1" parent="1">
          <mxGeometry x="777" y="-57" width="26" height="26" as="geometry" />
        </mxCell>
        <mxCell id="j4Oqm9sxDXDtLcWen2c1-681" value="" style="shape=image;html=1;verticalAlign=top;verticalLabelPosition=bottom;labelBackgroundColor=#ffffff;imageAspect=0;aspect=fixed;image=https://cdn3.iconfinder.com/data/icons/winter-flat-8/32/Winter_season_cold_snow_snowflake_Christmas_frost-128.png;fontSize=16;" vertex="1" parent="1">
          <mxGeometry x="126" y="185" width="26" height="26" as="geometry" />
        </mxCell>
        <mxCell id="j4Oqm9sxDXDtLcWen2c1-683" value="" style="shape=parallelogram;perimeter=parallelogramPerimeter;whiteSpace=wrap;html=1;fixedSize=1;fontSize=16;fillColor=#dae8fc;strokeColor=none;" vertex="1" parent="1">
          <mxGeometry x="798" y="-45.5" width="43" height="7" as="geometry" />
        </mxCell>
        <mxCell id="j4Oqm9sxDXDtLcWen2c1-684" value="" style="shape=parallelogram;perimeter=parallelogramPerimeter;whiteSpace=wrap;html=1;fixedSize=1;fontSize=16;fillColor=#dae8fc;strokeColor=none;" vertex="1" parent="1">
          <mxGeometry x="108" y="-45.5" width="128" height="7" as="geometry" />
        </mxCell>
        <mxCell id="j4Oqm9sxDXDtLcWen2c1-685" value="" style="shape=parallelogram;perimeter=parallelogramPerimeter;whiteSpace=wrap;html=1;fixedSize=1;fontSize=16;fillColor=#dae8fc;strokeColor=none;" vertex="1" parent="1">
          <mxGeometry x="793.5" y="154.5" width="47.5" height="7" as="geometry" />
        </mxCell>
        <mxCell id="j4Oqm9sxDXDtLcWen2c1-686" value="" style="shape=parallelogram;perimeter=parallelogramPerimeter;whiteSpace=wrap;html=1;fixedSize=1;fontSize=16;fillColor=#dae8fc;strokeColor=none;" vertex="1" parent="1">
          <mxGeometry x="797" y="230.5" width="47" height="7" as="geometry" />
        </mxCell>
        <mxCell id="j4Oqm9sxDXDtLcWen2c1-687" value="" style="shape=parallelogram;perimeter=parallelogramPerimeter;whiteSpace=wrap;html=1;fixedSize=1;fontSize=16;fillColor=#dae8fc;strokeColor=none;" vertex="1" parent="1">
          <mxGeometry x="791" y="271" width="51" height="7" as="geometry" />
        </mxCell>
        <mxCell id="j4Oqm9sxDXDtLcWen2c1-688" value="" style="shape=parallelogram;perimeter=parallelogramPerimeter;whiteSpace=wrap;html=1;fixedSize=1;fontSize=16;fillColor=#dae8fc;strokeColor=none;" vertex="1" parent="1">
          <mxGeometry x="112" y="274.5" width="129" height="7" as="geometry" />
        </mxCell>
        <mxCell id="j4Oqm9sxDXDtLcWen2c1-689" value="" style="shape=parallelogram;perimeter=parallelogramPerimeter;whiteSpace=wrap;html=1;fixedSize=1;fontSize=16;fillColor=#dae8fc;strokeColor=none;" vertex="1" parent="1">
          <mxGeometry x="114.5" y="235.5" width="129.5" height="7" as="geometry" />
        </mxCell>
        <mxCell id="j4Oqm9sxDXDtLcWen2c1-690" value="" style="shape=parallelogram;perimeter=parallelogramPerimeter;whiteSpace=wrap;html=1;fixedSize=1;fontSize=16;fillColor=#dae8fc;strokeColor=none;" vertex="1" parent="1">
          <mxGeometry x="114.5" y="154.5" width="124.5" height="7" as="geometry" />
        </mxCell>
        <mxCell id="j4Oqm9sxDXDtLcWen2c1-691" value="frost" style="shape=parallelogram;perimeter=parallelogramPerimeter;whiteSpace=wrap;html=1;fixedSize=1;fontSize=10;fillColor=#dae8fc;strokeColor=none;align=left;" vertex="1" parent="1">
          <mxGeometry x="152" y="194.5" width="95" height="7" as="geometry" />
        </mxCell>
        <mxCell id="j4Oqm9sxDXDtLcWen2c1-692" value="" style="shape=image;html=1;verticalAlign=top;verticalLabelPosition=bottom;labelBackgroundColor=#ffffff;imageAspect=0;aspect=fixed;image=https://cdn3.iconfinder.com/data/icons/winter-flat-8/32/Winter_season_cold_snow_snowflake_Christmas_frost-128.png;fontSize=16;" vertex="1" parent="1">
          <mxGeometry x="123" y="426" width="26" height="26" as="geometry" />
        </mxCell>
        <mxCell id="j4Oqm9sxDXDtLcWen2c1-693" value="frost" style="shape=parallelogram;perimeter=parallelogramPerimeter;whiteSpace=wrap;html=1;fixedSize=1;fontSize=10;fillColor=#dae8fc;strokeColor=none;align=left;" vertex="1" parent="1">
          <mxGeometry x="149" y="435.5" width="95" height="7" as="geometry" />
        </mxCell>
        <mxCell id="j4Oqm9sxDXDtLcWen2c1-694" value="" style="shape=parallelogram;perimeter=parallelogramPerimeter;whiteSpace=wrap;html=1;fixedSize=1;fontSize=16;fillColor=#6d8764;strokeColor=none;fontColor=#ffffff;" vertex="1" parent="1">
          <mxGeometry x="529" y="-85.5" width="231" height="7" as="geometry" />
        </mxCell>
        <mxCell id="j4Oqm9sxDXDtLcWen2c1-695" value="" style="shape=parallelogram;perimeter=parallelogramPerimeter;whiteSpace=wrap;html=1;fixedSize=1;fontSize=16;fillColor=#6d8764;strokeColor=none;fontColor=#ffffff;" vertex="1" parent="1">
          <mxGeometry x="470" y="-45.5" width="110" height="7" as="geometry" />
        </mxCell>
        <mxCell id="j4Oqm9sxDXDtLcWen2c1-696" value="" style="shape=parallelogram;perimeter=parallelogramPerimeter;whiteSpace=wrap;html=1;fixedSize=1;fontSize=16;fillColor=#6d8764;strokeColor=none;fontColor=#ffffff;" vertex="1" parent="1">
          <mxGeometry x="470" y="-5.5" width="154" height="7" as="geometry" />
        </mxCell>
        <mxCell id="j4Oqm9sxDXDtLcWen2c1-697" value="" style="shape=parallelogram;perimeter=parallelogramPerimeter;whiteSpace=wrap;html=1;fixedSize=1;fontSize=16;fillColor=#6d8764;strokeColor=none;fontColor=#ffffff;" vertex="1" parent="1">
          <mxGeometry x="476" y="34.5" width="154" height="7" as="geometry" />
        </mxCell>
        <mxCell id="j4Oqm9sxDXDtLcWen2c1-698" value="" style="shape=parallelogram;perimeter=parallelogramPerimeter;whiteSpace=wrap;html=1;fixedSize=1;fontSize=16;fillColor=#6d8764;strokeColor=none;fontColor=#ffffff;" vertex="1" parent="1">
          <mxGeometry x="410" y="74.5" width="154" height="7" as="geometry" />
        </mxCell>
        <mxCell id="j4Oqm9sxDXDtLcWen2c1-699" value="" style="shape=parallelogram;perimeter=parallelogramPerimeter;whiteSpace=wrap;html=1;fixedSize=1;fontSize=16;fillColor=#6d8764;strokeColor=none;fontColor=#ffffff;" vertex="1" parent="1">
          <mxGeometry x="412" y="114.5" width="154" height="7" as="geometry" />
        </mxCell>
        <mxCell id="j4Oqm9sxDXDtLcWen2c1-700" value="" style="shape=parallelogram;perimeter=parallelogramPerimeter;whiteSpace=wrap;html=1;fixedSize=1;fontSize=16;fillColor=#6d8764;strokeColor=none;fontColor=#ffffff;" vertex="1" parent="1">
          <mxGeometry x="472" y="154.5" width="52" height="7" as="geometry" />
        </mxCell>
        <mxCell id="j4Oqm9sxDXDtLcWen2c1-701" value="" style="shape=parallelogram;perimeter=parallelogramPerimeter;whiteSpace=wrap;html=1;fixedSize=1;fontSize=16;fillColor=#6d8764;strokeColor=none;fontColor=#ffffff;" vertex="1" parent="1">
          <mxGeometry x="587" y="157.5" width="52" height="7" as="geometry" />
        </mxCell>
        <mxCell id="j4Oqm9sxDXDtLcWen2c1-702" value="" style="shape=parallelogram;perimeter=parallelogramPerimeter;whiteSpace=wrap;html=1;fixedSize=1;fontSize=16;fillColor=#6d8764;strokeColor=none;fontColor=#ffffff;" vertex="1" parent="1">
          <mxGeometry x="541" y="194.5" width="214" height="7" as="geometry" />
        </mxCell>
        <mxCell id="j4Oqm9sxDXDtLcWen2c1-703" value="" style="shape=parallelogram;perimeter=parallelogramPerimeter;whiteSpace=wrap;html=1;fixedSize=1;fontSize=16;fillColor=#6d8764;strokeColor=none;fontColor=#ffffff;" vertex="1" parent="1">
          <mxGeometry x="470" y="234.5" width="154" height="7" as="geometry" />
        </mxCell>
        <mxCell id="j4Oqm9sxDXDtLcWen2c1-704" value="" style="shape=parallelogram;perimeter=parallelogramPerimeter;whiteSpace=wrap;html=1;fixedSize=1;fontSize=16;fillColor=#6d8764;strokeColor=none;fontColor=#ffffff;" vertex="1" parent="1">
          <mxGeometry x="470" y="275.5" width="154" height="7" as="geometry" />
        </mxCell>
        <mxCell id="j4Oqm9sxDXDtLcWen2c1-705" value="" style="shape=parallelogram;perimeter=parallelogramPerimeter;whiteSpace=wrap;html=1;fixedSize=1;fontSize=16;fillColor=#6d8764;strokeColor=none;fontColor=#ffffff;" vertex="1" parent="1">
          <mxGeometry x="531" y="314.5" width="214" height="7" as="geometry" />
        </mxCell>
        <mxCell id="j4Oqm9sxDXDtLcWen2c1-706" value="" style="shape=parallelogram;perimeter=parallelogramPerimeter;whiteSpace=wrap;html=1;fixedSize=1;fontSize=16;fillColor=#6d8764;strokeColor=none;fontColor=#ffffff;" vertex="1" parent="1">
          <mxGeometry x="535" y="358.5" width="110" height="7" as="geometry" />
        </mxCell>
        <mxCell id="j4Oqm9sxDXDtLcWen2c1-707" value="" style="shape=parallelogram;perimeter=parallelogramPerimeter;whiteSpace=wrap;html=1;fixedSize=1;fontSize=16;fillColor=#6d8764;strokeColor=none;fontColor=#ffffff;" vertex="1" parent="1">
          <mxGeometry x="412" y="399" width="269" height="7" as="geometry" />
        </mxCell>
        <mxCell id="j4Oqm9sxDXDtLcWen2c1-708" value="" style="shape=parallelogram;perimeter=parallelogramPerimeter;whiteSpace=wrap;html=1;fixedSize=1;fontSize=16;fillColor=#6d8764;strokeColor=none;fontColor=#ffffff;" vertex="1" parent="1">
          <mxGeometry x="223" y="435.5" width="217" height="7" as="geometry" />
        </mxCell>
        <mxCell id="j4Oqm9sxDXDtLcWen2c1-709" value="" style="shape=parallelogram;perimeter=parallelogramPerimeter;whiteSpace=wrap;html=1;fixedSize=1;fontSize=16;fillColor=#6d8764;strokeColor=none;fontColor=#ffffff;" vertex="1" parent="1">
          <mxGeometry x="410" y="478.5" width="227" height="7" as="geometry" />
        </mxCell>
        <mxCell id="j4Oqm9sxDXDtLcWen2c1-675" value="propagate&lt;br&gt;runners" style="shape=image;html=1;verticalAlign=middle;verticalLabelPosition=middle;labelBackgroundColor=none;imageAspect=0;aspect=fixed;image=https://cdn4.iconfinder.com/data/icons/office-time/512/21-128.png;fontSize=9;rotation=0;labelPosition=right;align=left;" vertex="1" parent="1">
          <mxGeometry x="535" y="468" width="28" height="28" as="geometry" />
        </mxCell>
        <mxCell id="j4Oqm9sxDXDtLcWen2c1-711" value="Harvest &amp;amp; pruning calendar - fruit trees (UK)" style="shape=parallelogram;perimeter=parallelogramPerimeter;whiteSpace=wrap;html=1;fixedSize=1;fontSize=16;fillColor=#4D4D4D;fontColor=#ffffff;strokeColor=none;size=-4;opacity=90;fontStyle=1" vertex="1" parent="1">
          <mxGeometry x="48" y="-182" width="783" height="32" as="geometry" />
        </mxCell>
        <mxCell id="j4Oqm9sxDXDtLcWen2c1-712" value="" style="shape=image;html=1;verticalAlign=middle;verticalLabelPosition=middle;labelBackgroundColor=#ffffff;imageAspect=0;aspect=fixed;image=https://cdn0.iconfinder.com/data/icons/phosphor-regular-vol-4/256/tree-128.png;fontSize=10;labelPosition=right;align=left;opacity=20;" vertex="1" parent="1">
          <mxGeometry x="606" y="471.5" width="21" height="21" as="geometry" />
        </mxCell>
        <mxCell id="j4Oqm9sxDXDtLcWen2c1-713" value="" style="shape=image;html=1;verticalAlign=middle;verticalLabelPosition=middle;labelBackgroundColor=#ffffff;imageAspect=0;aspect=fixed;image=https://cdn0.iconfinder.com/data/icons/phosphor-regular-vol-4/256/tree-128.png;fontSize=10;labelPosition=right;align=left;opacity=20;" vertex="1" parent="1">
          <mxGeometry x="674" y="431" width="21" height="21" as="geometry" />
        </mxCell>
        <mxCell id="j4Oqm9sxDXDtLcWen2c1-714" value="" style="shape=image;html=1;verticalAlign=middle;verticalLabelPosition=middle;labelBackgroundColor=#ffffff;imageAspect=0;aspect=fixed;image=https://cdn0.iconfinder.com/data/icons/phosphor-regular-vol-4/256/tree-128.png;fontSize=10;labelPosition=right;align=left;opacity=20;" vertex="1" parent="1">
          <mxGeometry x="734" y="391.5" width="21" height="21" as="geometry" />
        </mxCell>
        <mxCell id="j4Oqm9sxDXDtLcWen2c1-715" value="plant new" style="shape=image;html=1;verticalAlign=middle;verticalLabelPosition=middle;labelBackgroundColor=#ffffff;imageAspect=0;aspect=fixed;image=https://cdn0.iconfinder.com/data/icons/phosphor-regular-vol-4/256/tree-128.png;fontSize=10;labelPosition=right;align=left;opacity=20;" vertex="1" parent="1">
          <mxGeometry x="886" y="20.5" width="21" height="21" as="geometry" />
        </mxCell>
        <mxCell id="j4Oqm9sxDXDtLcWen2c1-717" value="prune &amp;amp;&amp;nbsp;&lt;br style=&quot;font-size: 10px;&quot;&gt;instructions" style="shape=image;html=1;verticalAlign=middle;verticalLabelPosition=middle;labelBackgroundColor=#ffffff;imageAspect=0;aspect=fixed;image=https://cdn4.iconfinder.com/data/icons/office-time/512/21-128.png;fontSize=10;rotation=0;labelPosition=right;align=left;" vertex="1" parent="1">
          <mxGeometry x="879.5" y="-22" width="28" height="28" as="geometry" />
        </mxCell>
        <mxCell id="j4Oqm9sxDXDtLcWen2c1-719" value="" style="shape=parallelogram;perimeter=parallelogramPerimeter;whiteSpace=wrap;html=1;fixedSize=1;fontSize=16;fillColor=#dae8fc;strokeColor=none;" vertex="1" parent="1">
          <mxGeometry x="888" y="135.5" width="94.5" height="7" as="geometry" />
        </mxCell>
        <mxCell id="j4Oqm9sxDXDtLcWen2c1-720" value="" style="shape=parallelogram;perimeter=parallelogramPerimeter;whiteSpace=wrap;html=1;fixedSize=1;fontSize=16;fillColor=#6d8764;strokeColor=none;fontColor=#ffffff;" vertex="1" parent="1">
          <mxGeometry x="877" y="93" width="94" height="7" as="geometry" />
        </mxCell>
        <mxCell id="j4Oqm9sxDXDtLcWen2c1-721" value="harvest" style="text;html=1;strokeColor=none;fillColor=none;align=center;verticalAlign=middle;whiteSpace=wrap;rounded=0;fontSize=10;" vertex="1" parent="1">
          <mxGeometry x="895" y="72" width="60" height="30" as="geometry" />
        </mxCell>
        <mxCell id="j4Oqm9sxDXDtLcWen2c1-718" value="protect from &lt;br&gt;cold / frost" style="shape=image;html=1;verticalAlign=middle;verticalLabelPosition=middle;labelBackgroundColor=#ffffff;imageAspect=0;aspect=fixed;image=https://cdn3.iconfinder.com/data/icons/winter-flat-8/32/Winter_season_cold_snow_snowflake_Christmas_frost-128.png;fontSize=10;labelPosition=right;align=left;spacingBottom=8;" vertex="1" parent="1">
          <mxGeometry x="886" y="114.5" width="26" height="26" as="geometry" />
        </mxCell>
        <mxCell id="j4Oqm9sxDXDtLcWen2c1-722" value="" style="shape=image;html=1;verticalAlign=middle;verticalLabelPosition=middle;labelBackgroundColor=#ffffff;imageAspect=0;aspect=fixed;image=https://cdn0.iconfinder.com/data/icons/phosphor-regular-vol-4/256/tree-128.png;fontSize=10;labelPosition=right;align=left;opacity=20;" vertex="1" parent="1">
          <mxGeometry x="732" y="351.5" width="21" height="21" as="geometry" />
        </mxCell>
        <mxCell id="j4Oqm9sxDXDtLcWen2c1-723" value="" style="shape=image;html=1;verticalAlign=middle;verticalLabelPosition=middle;labelBackgroundColor=#ffffff;imageAspect=0;aspect=fixed;image=https://cdn0.iconfinder.com/data/icons/phosphor-regular-vol-4/256/tree-128.png;fontSize=10;labelPosition=right;align=left;opacity=20;" vertex="1" parent="1">
          <mxGeometry x="732" y="311" width="21" height="21" as="geometry" />
        </mxCell>
        <mxCell id="j4Oqm9sxDXDtLcWen2c1-724" value="" style="shape=image;html=1;verticalAlign=middle;verticalLabelPosition=middle;labelBackgroundColor=#ffffff;imageAspect=0;aspect=fixed;image=https://cdn0.iconfinder.com/data/icons/phosphor-regular-vol-4/256/tree-128.png;fontSize=10;labelPosition=right;align=left;opacity=20;" vertex="1" parent="1">
          <mxGeometry x="734" y="269" width="21" height="21" as="geometry" />
        </mxCell>
        <mxCell id="j4Oqm9sxDXDtLcWen2c1-725" value="" style="shape=image;html=1;verticalAlign=middle;verticalLabelPosition=middle;labelBackgroundColor=#ffffff;imageAspect=0;aspect=fixed;image=https://cdn0.iconfinder.com/data/icons/phosphor-regular-vol-4/256/tree-128.png;fontSize=10;labelPosition=right;align=left;opacity=20;" vertex="1" parent="1">
          <mxGeometry x="732" y="227.5" width="21" height="21" as="geometry" />
        </mxCell>
        <mxCell id="j4Oqm9sxDXDtLcWen2c1-726" value="" style="shape=image;html=1;verticalAlign=middle;verticalLabelPosition=middle;labelBackgroundColor=#ffffff;imageAspect=0;aspect=fixed;image=https://cdn0.iconfinder.com/data/icons/phosphor-regular-vol-4/256/tree-128.png;fontSize=10;labelPosition=right;align=left;opacity=20;" vertex="1" parent="1">
          <mxGeometry x="728" y="-92.5" width="21" height="21" as="geometry" />
        </mxCell>
        <mxCell id="j4Oqm9sxDXDtLcWen2c1-727" value="" style="shape=image;html=1;verticalAlign=middle;verticalLabelPosition=middle;labelBackgroundColor=#ffffff;imageAspect=0;aspect=fixed;image=https://cdn0.iconfinder.com/data/icons/phosphor-regular-vol-4/256/tree-128.png;fontSize=10;labelPosition=right;align=left;opacity=20;" vertex="1" parent="1">
          <mxGeometry x="728" y="-51" width="21" height="21" as="geometry" />
        </mxCell>
        <mxCell id="j4Oqm9sxDXDtLcWen2c1-728" value="" style="shape=image;html=1;verticalAlign=middle;verticalLabelPosition=middle;labelBackgroundColor=#ffffff;imageAspect=0;aspect=fixed;image=https://cdn0.iconfinder.com/data/icons/phosphor-regular-vol-4/256/tree-128.png;fontSize=10;labelPosition=right;align=left;opacity=20;" vertex="1" parent="1">
          <mxGeometry x="114.5" y="-12.5" width="21" height="21" as="geometry" />
        </mxCell>
        <mxCell id="j4Oqm9sxDXDtLcWen2c1-729" value="" style="shape=parallelogram;perimeter=parallelogramPerimeter;whiteSpace=wrap;html=1;fixedSize=1;fontSize=16;fillColor=#d5e8d4;strokeColor=none;opacity=60;" vertex="1" parent="1">
          <mxGeometry x="116" y="-1" width="126" height="7" as="geometry" />
        </mxCell>
        <mxCell id="j4Oqm9sxDXDtLcWen2c1-730" value="" style="shape=parallelogram;perimeter=parallelogramPerimeter;whiteSpace=wrap;html=1;fixedSize=1;fontSize=16;fillColor=#d5e8d4;strokeColor=none;opacity=60;" vertex="1" parent="1">
          <mxGeometry x="881.5" y="34.5" width="97.5" height="7" as="geometry" />
        </mxCell>
        <mxCell id="j4Oqm9sxDXDtLcWen2c1-731" value="" style="shape=parallelogram;perimeter=parallelogramPerimeter;whiteSpace=wrap;html=1;fixedSize=1;fontSize=16;fillColor=#d5e8d4;strokeColor=none;opacity=60;" vertex="1" parent="1">
          <mxGeometry x="727" y="-75" width="120" height="7" as="geometry" />
        </mxCell>
        <mxCell id="j4Oqm9sxDXDtLcWen2c1-732" value="" style="shape=parallelogram;perimeter=parallelogramPerimeter;whiteSpace=wrap;html=1;fixedSize=1;fontSize=16;fillColor=#d5e8d4;strokeColor=none;opacity=60;" vertex="1" parent="1">
          <mxGeometry x="728" y="-35" width="118" height="7" as="geometry" />
        </mxCell>
        <mxCell id="j4Oqm9sxDXDtLcWen2c1-733" value="" style="shape=parallelogram;perimeter=parallelogramPerimeter;whiteSpace=wrap;html=1;fixedSize=1;fontSize=16;fillColor=#d5e8d4;strokeColor=none;opacity=60;" vertex="1" parent="1">
          <mxGeometry x="729" y="245" width="116" height="7" as="geometry" />
        </mxCell>
        <mxCell id="j4Oqm9sxDXDtLcWen2c1-734" value="" style="shape=parallelogram;perimeter=parallelogramPerimeter;whiteSpace=wrap;html=1;fixedSize=1;fontSize=16;fillColor=#d5e8d4;strokeColor=none;opacity=60;" vertex="1" parent="1">
          <mxGeometry x="728" y="285" width="116" height="7" as="geometry" />
        </mxCell>
        <mxCell id="j4Oqm9sxDXDtLcWen2c1-738" value="" style="shape=parallelogram;perimeter=parallelogramPerimeter;whiteSpace=wrap;html=1;fixedSize=1;fontSize=16;fillColor=#d5e8d4;strokeColor=none;opacity=60;" vertex="1" parent="1">
          <mxGeometry x="734" y="328" width="114" height="7" as="geometry" />
        </mxCell>
        <mxCell id="j4Oqm9sxDXDtLcWen2c1-739" value="" style="shape=parallelogram;perimeter=parallelogramPerimeter;whiteSpace=wrap;html=1;fixedSize=1;fontSize=16;fillColor=#d5e8d4;strokeColor=none;opacity=60;" vertex="1" parent="1">
          <mxGeometry x="732" y="369" width="115" height="7" as="geometry" />
        </mxCell>
        <mxCell id="j4Oqm9sxDXDtLcWen2c1-740" value="" style="shape=parallelogram;perimeter=parallelogramPerimeter;whiteSpace=wrap;html=1;fixedSize=1;fontSize=16;fillColor=#d5e8d4;strokeColor=none;opacity=60;" vertex="1" parent="1">
          <mxGeometry x="734" y="409" width="113" height="7" as="geometry" />
        </mxCell>
        <mxCell id="j4Oqm9sxDXDtLcWen2c1-741" value="" style="shape=parallelogram;perimeter=parallelogramPerimeter;whiteSpace=wrap;html=1;fixedSize=1;fontSize=16;fillColor=#d5e8d4;strokeColor=none;opacity=60;" vertex="1" parent="1">
          <mxGeometry x="674" y="447" width="171" height="7" as="geometry" />
        </mxCell>
        <mxCell id="j4Oqm9sxDXDtLcWen2c1-742" value="" style="shape=image;html=1;verticalAlign=top;verticalLabelPosition=bottom;labelBackgroundColor=#ffffff;imageAspect=0;aspect=fixed;image=https://cdn1.iconfinder.com/data/icons/social-media-vol-1/24/_flower-128.png;fontSize=16;opacity=70;" vertex="1" parent="1">
          <mxGeometry x="333" y="-91" width="18" height="18" as="geometry" />
        </mxCell>
        <mxCell id="j4Oqm9sxDXDtLcWen2c1-743" value="" style="shape=image;html=1;verticalAlign=top;verticalLabelPosition=bottom;labelBackgroundColor=#ffffff;imageAspect=0;aspect=fixed;image=https://cdn1.iconfinder.com/data/icons/social-media-vol-1/24/_flower-128.png;fontSize=16;opacity=70;" vertex="1" parent="1">
          <mxGeometry x="212" y="-51" width="18" height="18" as="geometry" />
        </mxCell>
        <mxCell id="j4Oqm9sxDXDtLcWen2c1-744" value="" style="shape=image;html=1;verticalAlign=top;verticalLabelPosition=bottom;labelBackgroundColor=#ffffff;imageAspect=0;aspect=fixed;image=https://cdn1.iconfinder.com/data/icons/social-media-vol-1/24/_flower-128.png;fontSize=16;" vertex="1" parent="1">
          <mxGeometry x="369" y="-11" width="18" height="18" as="geometry" />
        </mxCell>
        <mxCell id="j4Oqm9sxDXDtLcWen2c1-745" value="" style="shape=image;html=1;verticalAlign=top;verticalLabelPosition=bottom;labelBackgroundColor=#ffffff;imageAspect=0;aspect=fixed;image=https://cdn1.iconfinder.com/data/icons/social-media-vol-1/24/_flower-128.png;fontSize=16;opacity=70;" vertex="1" parent="1">
          <mxGeometry x="349" y="29" width="18" height="18" as="geometry" />
        </mxCell>
        <mxCell id="j4Oqm9sxDXDtLcWen2c1-746" value="" style="shape=image;html=1;verticalAlign=top;verticalLabelPosition=bottom;labelBackgroundColor=#ffffff;imageAspect=0;aspect=fixed;image=https://cdn1.iconfinder.com/data/icons/social-media-vol-1/24/_flower-128.png;fontSize=16;opacity=70;" vertex="1" parent="1">
          <mxGeometry x="235" y="69" width="18" height="18" as="geometry" />
        </mxCell>
        <mxCell id="j4Oqm9sxDXDtLcWen2c1-747" value="" style="shape=image;html=1;verticalAlign=top;verticalLabelPosition=bottom;labelBackgroundColor=#ffffff;imageAspect=0;aspect=fixed;image=https://cdn1.iconfinder.com/data/icons/social-media-vol-1/24/_flower-128.png;fontSize=16;opacity=70;" vertex="1" parent="1">
          <mxGeometry x="271" y="109" width="18" height="18" as="geometry" />
        </mxCell>
        <mxCell id="j4Oqm9sxDXDtLcWen2c1-748" value="" style="shape=image;html=1;verticalAlign=top;verticalLabelPosition=bottom;labelBackgroundColor=#ffffff;imageAspect=0;aspect=fixed;image=https://cdn1.iconfinder.com/data/icons/social-media-vol-1/24/_flower-128.png;fontSize=16;opacity=70;" vertex="1" parent="1">
          <mxGeometry x="639" y="152" width="18" height="18" as="geometry" />
        </mxCell>
        <mxCell id="j4Oqm9sxDXDtLcWen2c1-749" value="" style="shape=image;html=1;verticalAlign=top;verticalLabelPosition=bottom;labelBackgroundColor=#ffffff;imageAspect=0;aspect=fixed;image=https://cdn1.iconfinder.com/data/icons/social-media-vol-1/24/_flower-128.png;fontSize=16;opacity=70;" vertex="1" parent="1">
          <mxGeometry x="242" y="229" width="18" height="18" as="geometry" />
        </mxCell>
        <mxCell id="j4Oqm9sxDXDtLcWen2c1-750" value="" style="shape=image;html=1;verticalAlign=top;verticalLabelPosition=bottom;labelBackgroundColor=#ffffff;imageAspect=0;aspect=fixed;image=https://cdn1.iconfinder.com/data/icons/social-media-vol-1/24/_flower-128.png;fontSize=16;opacity=70;" vertex="1" parent="1">
          <mxGeometry x="242" y="269" width="18" height="18" as="geometry" />
        </mxCell>
        <mxCell id="j4Oqm9sxDXDtLcWen2c1-751" value="" style="shape=image;html=1;verticalAlign=top;verticalLabelPosition=bottom;labelBackgroundColor=#ffffff;imageAspect=0;aspect=fixed;image=https://cdn1.iconfinder.com/data/icons/social-media-vol-1/24/_flower-128.png;fontSize=16;opacity=70;" vertex="1" parent="1">
          <mxGeometry x="333" y="314" width="18" height="18" as="geometry" />
        </mxCell>
        <mxCell id="j4Oqm9sxDXDtLcWen2c1-752" value="" style="shape=image;html=1;verticalAlign=top;verticalLabelPosition=bottom;labelBackgroundColor=#ffffff;imageAspect=0;aspect=fixed;image=https://cdn1.iconfinder.com/data/icons/social-media-vol-1/24/_flower-128.png;fontSize=16;opacity=70;" vertex="1" parent="1">
          <mxGeometry x="217" y="353" width="18" height="18" as="geometry" />
        </mxCell>
        <mxCell id="j4Oqm9sxDXDtLcWen2c1-753" value="" style="shape=image;html=1;verticalAlign=top;verticalLabelPosition=bottom;labelBackgroundColor=#ffffff;imageAspect=0;aspect=fixed;image=https://cdn1.iconfinder.com/data/icons/social-media-vol-1/24/_flower-128.png;fontSize=16;opacity=70;" vertex="1" parent="1">
          <mxGeometry x="322.5" y="393" width="18" height="18" as="geometry" />
        </mxCell>
        <mxCell id="j4Oqm9sxDXDtLcWen2c1-754" value="" style="shape=image;html=1;verticalAlign=top;verticalLabelPosition=bottom;labelBackgroundColor=#ffffff;imageAspect=0;aspect=fixed;image=https://cdn1.iconfinder.com/data/icons/social-media-vol-1/24/_flower-128.png;fontSize=16;opacity=70;" vertex="1" parent="1">
          <mxGeometry x="531" y="393.5" width="18" height="18" as="geometry" />
        </mxCell>
        <mxCell id="j4Oqm9sxDXDtLcWen2c1-755" value="" style="shape=image;html=1;verticalAlign=top;verticalLabelPosition=bottom;labelBackgroundColor=#ffffff;imageAspect=0;aspect=fixed;image=https://cdn1.iconfinder.com/data/icons/social-media-vol-1/24/_flower-128.png;fontSize=16;opacity=70;" vertex="1" parent="1">
          <mxGeometry x="308" y="473.5" width="18" height="18" as="geometry" />
        </mxCell>
        <mxCell id="j4Oqm9sxDXDtLcWen2c1-756" value="" style="shape=parallelogram;perimeter=parallelogramPerimeter;whiteSpace=wrap;html=1;fixedSize=1;fontSize=16;fillColor=#ffcccc;strokeColor=none;flipV=1;opacity=50;" vertex="1" parent="1">
          <mxGeometry x="333" y="-92.5" width="75" height="7" as="geometry" />
        </mxCell>
        <mxCell id="j4Oqm9sxDXDtLcWen2c1-757" value="" style="shape=parallelogram;perimeter=parallelogramPerimeter;whiteSpace=wrap;html=1;fixedSize=1;fontSize=16;fillColor=#ffcccc;strokeColor=none;flipV=1;opacity=50;" vertex="1" parent="1">
          <mxGeometry x="217" y="-51" width="75" height="7" as="geometry" />
        </mxCell>
        <mxCell id="j4Oqm9sxDXDtLcWen2c1-758" value="" style="shape=parallelogram;perimeter=parallelogramPerimeter;whiteSpace=wrap;html=1;fixedSize=1;fontSize=16;fillColor=#ffcccc;strokeColor=none;flipV=1;opacity=70;" vertex="1" parent="1">
          <mxGeometry x="369" y="-12.5" width="75" height="7" as="geometry" />
        </mxCell>
        <mxCell id="j4Oqm9sxDXDtLcWen2c1-759" value="" style="shape=parallelogram;perimeter=parallelogramPerimeter;whiteSpace=wrap;html=1;fixedSize=1;fontSize=16;fillColor=#ffcccc;strokeColor=none;flipV=1;opacity=50;" vertex="1" parent="1">
          <mxGeometry x="351" y="29" width="75" height="7" as="geometry" />
        </mxCell>
        <mxCell id="j4Oqm9sxDXDtLcWen2c1-760" value="" style="shape=parallelogram;perimeter=parallelogramPerimeter;whiteSpace=wrap;html=1;fixedSize=1;fontSize=16;fillColor=#ffcccc;strokeColor=none;flipV=1;opacity=50;" vertex="1" parent="1">
          <mxGeometry x="236" y="69.5" width="75" height="7" as="geometry" />
        </mxCell>
        <mxCell id="j4Oqm9sxDXDtLcWen2c1-761" value="" style="shape=parallelogram;perimeter=parallelogramPerimeter;whiteSpace=wrap;html=1;fixedSize=1;fontSize=16;fillColor=#ffcccc;strokeColor=none;flipV=1;opacity=50;" vertex="1" parent="1">
          <mxGeometry x="271" y="109" width="75" height="7" as="geometry" />
        </mxCell>
        <mxCell id="j4Oqm9sxDXDtLcWen2c1-762" value="" style="shape=parallelogram;perimeter=parallelogramPerimeter;whiteSpace=wrap;html=1;fixedSize=1;fontSize=16;fillColor=#ffcccc;strokeColor=none;flipV=1;opacity=50;" vertex="1" parent="1">
          <mxGeometry x="244" y="229" width="75" height="7" as="geometry" />
        </mxCell>
        <mxCell id="j4Oqm9sxDXDtLcWen2c1-763" value="" style="shape=parallelogram;perimeter=parallelogramPerimeter;whiteSpace=wrap;html=1;fixedSize=1;fontSize=16;fillColor=#ffcccc;strokeColor=none;flipV=1;opacity=50;" vertex="1" parent="1">
          <mxGeometry x="245" y="269" width="75" height="7" as="geometry" />
        </mxCell>
        <mxCell id="j4Oqm9sxDXDtLcWen2c1-764" value="" style="shape=parallelogram;perimeter=parallelogramPerimeter;whiteSpace=wrap;html=1;fixedSize=1;fontSize=16;fillColor=#ffcccc;strokeColor=none;flipV=1;opacity=50;" vertex="1" parent="1">
          <mxGeometry x="333" y="314" width="75" height="7" as="geometry" />
        </mxCell>
        <mxCell id="j4Oqm9sxDXDtLcWen2c1-765" value="" style="shape=parallelogram;perimeter=parallelogramPerimeter;whiteSpace=wrap;html=1;fixedSize=1;fontSize=16;fillColor=#ffcccc;strokeColor=none;flipV=1;opacity=50;" vertex="1" parent="1">
          <mxGeometry x="217" y="351.5" width="75" height="7" as="geometry" />
        </mxCell>
        <mxCell id="j4Oqm9sxDXDtLcWen2c1-766" value="" style="shape=parallelogram;perimeter=parallelogramPerimeter;whiteSpace=wrap;html=1;fixedSize=1;fontSize=16;fillColor=#ffcccc;strokeColor=none;flipV=1;opacity=50;" vertex="1" parent="1">
          <mxGeometry x="324.5" y="393" width="57.5" height="7" as="geometry" />
        </mxCell>
        <mxCell id="j4Oqm9sxDXDtLcWen2c1-767" value="" style="shape=parallelogram;perimeter=parallelogramPerimeter;whiteSpace=wrap;html=1;fixedSize=1;fontSize=16;fillColor=#ffcccc;strokeColor=none;flipV=1;opacity=50;" vertex="1" parent="1">
          <mxGeometry x="531.5" y="392" width="57.5" height="7" as="geometry" />
        </mxCell>
        <mxCell id="j4Oqm9sxDXDtLcWen2c1-768" value="" style="shape=parallelogram;perimeter=parallelogramPerimeter;whiteSpace=wrap;html=1;fixedSize=1;fontSize=16;fillColor=#ffcccc;strokeColor=none;flipV=1;opacity=50;" vertex="1" parent="1">
          <mxGeometry x="309.5" y="471.5" width="250.5" height="7" as="geometry" />
        </mxCell>
        <mxCell id="j4Oqm9sxDXDtLcWen2c1-769" value="flower" style="shape=image;html=1;verticalAlign=middle;verticalLabelPosition=middle;labelBackgroundColor=#ffffff;imageAspect=0;aspect=fixed;image=https://cdn1.iconfinder.com/data/icons/social-media-vol-1/24/_flower-128.png;fontSize=10;labelPosition=right;align=left;spacingBottom=-3;opacity=70;" vertex="1" parent="1">
          <mxGeometry x="888" y="56.5" width="18" height="18" as="geometry" />
        </mxCell>
        <mxCell id="j4Oqm9sxDXDtLcWen2c1-770" value="" style="shape=parallelogram;perimeter=parallelogramPerimeter;whiteSpace=wrap;html=1;fixedSize=1;fontSize=16;fillColor=#ffcccc;strokeColor=none;flipV=1;opacity=50;" vertex="1" parent="1">
          <mxGeometry x="893" y="56.5" width="75" height="7" as="geometry" />
        </mxCell>
        <mxCell id="j4Oqm9sxDXDtLcWen2c1-772" value="" style="shape=image;html=1;verticalAlign=middle;verticalLabelPosition=middle;labelBackgroundColor=#ffffff;imageAspect=0;aspect=fixed;image=https://cdn0.iconfinder.com/data/icons/phosphor-regular-vol-4/256/tree-128.png;fontSize=10;labelPosition=right;align=left;opacity=20;" vertex="1" parent="1">
          <mxGeometry x="668" y="184" width="21" height="21" as="geometry" />
        </mxCell>
        <mxCell id="j4Oqm9sxDXDtLcWen2c1-773" value="" style="shape=image;html=1;verticalAlign=middle;verticalLabelPosition=middle;labelBackgroundColor=#ffffff;imageAspect=0;aspect=fixed;image=https://cdn0.iconfinder.com/data/icons/phosphor-regular-vol-4/256/tree-128.png;fontSize=10;labelPosition=right;align=left;opacity=20;" vertex="1" parent="1">
          <mxGeometry x="247" y="147.5" width="21" height="21" as="geometry" />
        </mxCell>
        <mxCell id="j4Oqm9sxDXDtLcWen2c1-774" value="" style="shape=image;html=1;verticalAlign=middle;verticalLabelPosition=middle;labelBackgroundColor=#ffffff;imageAspect=0;aspect=fixed;image=https://cdn0.iconfinder.com/data/icons/phosphor-regular-vol-4/256/tree-128.png;fontSize=10;labelPosition=right;align=left;opacity=20;" vertex="1" parent="1">
          <mxGeometry x="728" y="107.5" width="21" height="21" as="geometry" />
        </mxCell>
        <mxCell id="j4Oqm9sxDXDtLcWen2c1-775" value="" style="shape=parallelogram;perimeter=parallelogramPerimeter;whiteSpace=wrap;html=1;fixedSize=1;fontSize=16;fillColor=#d5e8d4;strokeColor=none;opacity=60;" vertex="1" parent="1">
          <mxGeometry x="247" y="162" width="81" height="7" as="geometry" />
        </mxCell>
        <mxCell id="j4Oqm9sxDXDtLcWen2c1-776" value="" style="shape=parallelogram;perimeter=parallelogramPerimeter;whiteSpace=wrap;html=1;fixedSize=1;fontSize=16;fillColor=#d5e8d4;strokeColor=none;opacity=60;" vertex="1" parent="1">
          <mxGeometry x="576" y="485.5" width="99" height="7" as="geometry" />
        </mxCell>
        <mxCell id="j4Oqm9sxDXDtLcWen2c1-777" value="" style="shape=parallelogram;perimeter=parallelogramPerimeter;whiteSpace=wrap;html=1;fixedSize=1;fontSize=16;fillColor=#d5e8d4;strokeColor=none;opacity=60;" vertex="1" parent="1">
          <mxGeometry x="657" y="201.5" width="125" height="7" as="geometry" />
        </mxCell>
        <mxCell id="j4Oqm9sxDXDtLcWen2c1-778" value="" style="shape=parallelogram;perimeter=parallelogramPerimeter;whiteSpace=wrap;html=1;fixedSize=1;fontSize=16;fillColor=#d5e8d4;strokeColor=none;opacity=60;" vertex="1" parent="1">
          <mxGeometry x="732" y="125" width="109" height="7" as="geometry" />
        </mxCell>
        <mxCell id="j4Oqm9sxDXDtLcWen2c1-779" value="" style="shape=image;html=1;verticalAlign=middle;verticalLabelPosition=middle;labelBackgroundColor=#ffffff;imageAspect=0;aspect=fixed;image=https://cdn0.iconfinder.com/data/icons/phosphor-regular-vol-4/256/tree-128.png;fontSize=10;labelPosition=right;align=left;opacity=20;" vertex="1" parent="1">
          <mxGeometry x="668" y="67.5" width="21" height="21" as="geometry" />
        </mxCell>
        <mxCell id="j4Oqm9sxDXDtLcWen2c1-780" value="" style="shape=parallelogram;perimeter=parallelogramPerimeter;whiteSpace=wrap;html=1;fixedSize=1;fontSize=16;fillColor=#d5e8d4;strokeColor=none;opacity=60;" vertex="1" parent="1">
          <mxGeometry x="663" y="83.5" width="175" height="7" as="geometry" />
        </mxCell>
        <mxCell id="j4Oqm9sxDXDtLcWen2c1-781" value="" style="shape=image;html=1;verticalAlign=middle;verticalLabelPosition=middle;labelBackgroundColor=#ffffff;imageAspect=0;aspect=fixed;image=https://cdn0.iconfinder.com/data/icons/phosphor-regular-vol-4/256/tree-128.png;fontSize=10;labelPosition=right;align=left;opacity=20;" vertex="1" parent="1">
          <mxGeometry x="725" y="25.75" width="21" height="21" as="geometry" />
        </mxCell>
        <mxCell id="j4Oqm9sxDXDtLcWen2c1-782" value="" style="shape=parallelogram;perimeter=parallelogramPerimeter;whiteSpace=wrap;html=1;fixedSize=1;fontSize=16;fillColor=#d5e8d4;strokeColor=none;opacity=60;" vertex="1" parent="1">
          <mxGeometry x="729" y="43.25" width="109" height="7" as="geometry" />
        </mxCell>
      </root>
    </mxGraphModel>
  </diagram>
</mxfile>
